<svg width="148" height="61" viewBox="0 0 148 61" fill="none" xmlns="http://www.w3.org/2000/svg">
<path d="M139.598 45.4139H8.40235C4.22213 45.4139 0.833313 42.0251 0.833313 37.8449V7.56904C0.833313 3.38882 4.22213 0 8.40235 0H139.598C143.778 0 147.167 3.38882 147.167 7.56904V37.8449C147.167 42.0251 143.778 45.4139 139.598 45.4139Z" fill="#EEEEEE"/>
<path opacity="0.1" d="M144.643 22.7067C144.643 11.5771 135.589 2.52271 124.459 2.52271C113.33 2.52271 104.275 11.5771 104.275 22.7067V28.6772C102.677 30.4944 101.752 32.8532 101.752 35.3214V42.8904C101.752 43.7441 101.809 44.5841 101.901 45.4135H139.597C143.777 45.4135 147.166 42.0247 147.166 37.8445V35.3214C147.166 32.8529 146.242 30.4938 144.643 28.6772V22.7067H144.643Z" fill="#9F9F9F"/>
<path d="M69.7866 16.3994C69.0892 15.1896 67.5421 14.7781 66.3395 15.4754L61.3847 18.3364V12.6148C61.3847 11.2203 60.2563 10.0917 58.8616 10.0917C57.4669 10.0917 56.3385 11.22 56.3385 12.6148V18.3364L51.3837 15.4757C50.1765 14.7783 48.634 15.1899 47.9366 16.3997C47.2392 17.607 47.6534 19.1495 48.8606 19.8468L53.8148 22.7072L48.8606 25.5676C47.6534 26.2649 47.2392 27.8074 47.9366 29.0147C48.4048 29.8252 49.2525 30.2763 50.1248 30.2763C50.5535 30.2763 50.987 30.1676 51.3837 29.9387L56.3385 27.0772V32.7988C56.3385 34.1932 57.4669 35.3219 58.8616 35.3219C60.2563 35.3219 61.3847 34.1935 61.3847 32.7988V27.0772L66.3395 29.9379C66.7362 30.1671 67.1697 30.2754 67.5984 30.2754C68.4707 30.2754 69.3181 29.8244 69.7866 29.0138C70.484 27.8066 70.0698 26.2641 68.8626 25.5667L63.9084 22.7066L68.8626 19.8463C70.0698 19.1492 70.484 17.6067 69.7866 16.3994Z" fill="#425A8B"/>
<path d="M39.5108 16.3993C38.8109 15.1894 37.2664 14.7779 36.0637 15.4752L31.109 18.3362V12.6146C31.109 11.2201 29.9806 10.0915 28.5859 10.0915C27.1914 10.0915 26.0628 11.2199 26.0628 12.6146V18.3362L21.1083 15.4755C19.901 14.7782 18.3611 15.1897 17.6612 16.3995C16.9638 17.6068 17.3779 19.1493 18.5852 19.8467L23.5394 22.7067L18.5852 25.5671C17.3779 26.2645 16.9638 27.807 17.6612 29.0142C18.1293 29.8248 18.977 30.2758 19.8493 30.2758C20.278 30.2758 20.7116 30.1672 21.1083 29.9382L26.063 27.0773V32.7989C26.063 34.1933 27.1914 35.322 28.5861 35.322C29.9806 35.322 31.1093 34.1936 31.1093 32.7989V27.0773L36.064 29.938C36.4607 30.1672 36.8943 30.2755 37.323 30.2755C38.1953 30.2755 39.0427 29.8245 39.5111 29.0139C40.2085 27.8067 39.7944 26.2642 38.5871 25.5668L33.6329 22.7067L38.5871 19.8464C39.7941 19.149 40.2082 17.6065 39.5108 16.3993Z" fill="#425A8B"/>
<path d="M99.1385 25.5677L94.1843 22.7073L99.1385 19.8469C100.346 19.1496 100.76 17.6071 100.062 16.3998C99.3625 15.19 97.818 14.7784 96.6153 15.4758L91.6606 18.3367V12.6151C91.6606 11.2207 90.5322 10.092 89.1375 10.092C87.7427 10.092 86.6144 11.2204 86.6144 12.6151V18.3367L81.6596 15.4761C80.4549 14.7787 78.9099 15.1903 78.2125 16.4001C77.5151 17.6073 77.9293 19.1498 79.1365 19.8472L84.0907 22.7076L79.1365 25.5679C77.9293 26.2653 77.5151 27.8078 78.2125 29.0151C78.6806 29.8256 79.5283 30.2766 80.4006 30.2766C80.8293 30.2766 81.2629 30.168 81.6596 29.9391L86.6144 27.0776V32.7992C86.6144 34.1936 87.7427 35.3223 89.1375 35.3223C90.5322 35.3223 91.6606 34.1939 91.6606 32.7992V27.0776L96.6153 29.9382C97.012 30.1674 97.4456 30.2758 97.8743 30.2758C98.7466 30.2758 99.594 29.8248 100.062 29.0142C100.76 27.8072 100.346 26.2647 99.1385 25.5677Z" fill="#425A8B"/>
<path d="M124.46 7.56915C116.112 7.56915 109.321 14.3594 109.321 22.7072V32.7991H114.367V22.7072C114.367 17.1414 118.894 12.6154 124.459 12.6154C130.025 12.6154 134.551 17.1417 134.551 22.7072V32.7991H139.597V22.7072C139.597 14.3594 132.807 7.56915 124.46 7.56915Z" fill="#425A8B"/>
<path d="M124.46 60.5517C134.213 60.5517 142.121 52.6446 142.121 42.8908V35.3218C142.121 32.5349 139.862 30.2759 137.075 30.2759H111.845C109.058 30.2759 106.799 32.5349 106.799 35.3218V42.8908C106.799 52.6446 114.706 60.5517 124.46 60.5517Z" fill="#76A441"/>
<path d="M128.244 42.8908C128.244 40.8006 126.55 39.1064 124.46 39.1064C122.37 39.1064 120.675 40.8009 120.675 42.8908C120.675 44.0071 121.168 45.0003 121.937 45.6931V48.8038C121.937 50.1983 123.065 51.3269 124.46 51.3269C125.854 51.3269 126.983 50.1986 126.983 48.8038V45.6931C127.751 45.0003 128.244 44.0071 128.244 42.8908Z" fill="white"/>
<path d="M114.367 42.8908V35.3218C114.367 32.5349 116.627 30.2759 119.413 30.2759H111.844C109.057 30.2759 106.798 32.5349 106.798 35.3218V42.8908C106.798 52.6446 114.705 60.5517 124.459 60.5517C125.759 60.5517 127.023 60.4017 128.243 60.135C120.311 58.4013 114.367 51.3445 114.367 42.8908Z" fill="#679137"/>
</svg>
