<svg width="32" height="23" viewBox="0 0 32 23" fill="none" xmlns="http://www.w3.org/2000/svg">
<path fill-rule="evenodd" clip-rule="evenodd" d="M0 2.75C0 1.64543 0.895431 0.75 2 0.75H30C31.1046 0.75 32 1.64543 32 2.75V20.75C32 21.8546 31.1046 22.75 30 22.75H2C0.895431 22.75 0 21.8546 0 20.75V2.75Z" fill="#1B9D00"/>
<path fill-rule="evenodd" clip-rule="evenodd" d="M7.93515 6.64118C7.89879 7.12675 7.85521 7.98128 8.27187 8.06893C8.77586 8.11691 8.49793 7.2243 8.68038 7.06244C8.71486 6.98247 8.77844 6.98206 8.78369 7.08294V7.84005C8.7791 8.0863 8.94256 8.1588 9.06953 8.20967C9.20171 8.19956 9.28994 8.20395 9.34172 8.33125L9.40371 9.6409C9.40371 9.6409 9.71021 9.72778 9.7248 8.90426C9.73944 8.42077 9.62723 8.01603 9.69303 7.92193C9.69533 7.82949 9.81455 7.82397 9.8972 7.86903C10.029 7.96102 10.0876 8.07465 10.2924 8.02922C10.6039 7.94422 10.7912 7.79418 10.7958 7.55734C10.7776 7.33224 10.7521 7.10714 10.6536 6.88204C10.6673 6.84108 10.5934 6.73504 10.6071 6.69408C10.6631 6.78091 10.7483 6.77369 10.7677 6.69408C10.7147 6.5211 10.6324 6.35535 10.499 6.28358C10.3888 6.18745 10.2275 6.2071 10.1684 6.40764C10.1411 6.63871 10.2525 6.91325 10.4225 7.13706C10.4585 7.2245 10.5093 7.36979 10.487 7.50063C10.3966 7.55174 10.3061 7.53043 10.2304 7.45123C10.2304 7.45123 9.98239 7.26708 9.98239 7.22616C10.0482 6.80901 9.99699 6.76171 9.96054 6.64593C9.93504 6.48611 9.85846 6.43488 9.79643 6.32572C9.7344 6.2606 9.65047 6.2606 9.61038 6.32572C9.50075 6.51388 9.55187 6.91772 9.63104 7.09865C9.68827 7.26501 9.77568 7.36943 9.73436 7.36943C9.70037 7.46344 9.63006 7.44173 9.57889 7.33321C9.50583 7.10892 9.4912 6.77426 9.4912 6.62361C9.4693 6.43675 9.4452 6.03822 9.32101 5.93698C9.24525 5.83484 9.13295 5.88465 9.09372 5.9779C9.08556 6.16334 9.0847 6.34873 9.10581 6.51964C9.19097 6.81936 9.21774 7.08294 9.25906 7.38989C9.27054 7.80104 9.01898 7.56826 9.03046 7.36443C9.08847 7.09967 9.07342 6.68292 9.02185 6.57729C8.98101 6.47166 8.93276 6.4456 8.83338 6.46297C8.75446 6.45822 8.5514 6.67776 8.49437 7.04194C8.49437 7.04194 8.44574 7.22941 8.42504 7.39585C8.39716 7.58393 8.27212 7.71668 8.18438 7.36938C8.10862 7.117 8.06204 6.49561 7.93511 6.64114L7.93515 6.64118Z" fill="white"/>
<path fill-rule="evenodd" clip-rule="evenodd" d="M9.30552 8.63391C8.86077 8.84919 8.43066 9.05001 7.99316 9.25807C8.00915 8.96351 8.61712 8.43179 9.03169 8.42432C9.30154 8.43179 9.23373 8.52783 9.30552 8.63395V8.63391Z" fill="white"/>
<path fill-rule="evenodd" clip-rule="evenodd" d="M9.07635 9.04111C8.38471 10.8065 10.696 11.0525 10.9543 9.11341C10.9786 9.03384 11.076 8.95428 11.0931 9.08447C11.0395 10.8401 9.30533 10.9608 9.01063 10.4084C8.93761 10.2783 8.91564 9.98885 8.90834 9.81518C8.86447 9.47037 8.68187 9.60299 8.65264 9.94542C8.62336 10.1359 8.6307 10.1891 8.6307 10.3723C8.72323 11.759 10.9568 11.1634 11.3196 10.0178C11.5121 9.38349 11.288 8.91567 11.3927 8.91807C11.6143 9.15441 11.9236 8.94941 11.9918 8.8674C12.0211 8.8264 12.0942 8.79993 12.1453 8.85295C12.3182 8.97604 12.6227 8.91803 12.686 8.701C12.7226 8.48877 12.7518 8.26931 12.7591 8.04267C12.6178 8.0861 12.5131 8.11497 12.5034 8.1729L12.4742 8.36098C12.462 8.4213 12.3401 8.42365 12.3353 8.34648C12.2818 8.10531 12.0601 8.07397 11.9261 8.44781C11.836 8.52015 11.6728 8.53464 11.6557 8.42613C11.6776 8.17529 11.5754 8.14152 11.3708 8.25969C11.305 7.76288 11.2393 7.28783 11.1735 6.79099C11.2588 6.78855 11.3367 6.85123 11.4147 6.75478C11.3294 6.49196 11.1492 5.95411 11.0493 5.91551C11.0006 5.85766 10.9591 5.89383 10.8958 5.90828C10.7887 5.94206 10.6888 6.03372 10.7204 6.21218C10.8471 6.97424 10.9299 7.55548 11.0566 8.31758C11.076 8.40681 11.0006 8.5249 10.9031 8.51284C10.7375 8.40194 10.6962 8.17769 10.4136 8.18727C10.209 8.1897 9.97511 8.40916 9.94596 8.62148C9.91185 8.79019 9.89963 8.97344 9.94588 9.12064C10.0897 9.29183 10.2626 9.27502 10.4136 9.23642C10.5378 9.18579 10.6401 9.06279 10.6839 9.09169C10.7132 9.1279 10.6912 9.53297 10.0993 9.84413C9.74134 10.0033 9.45632 10.0395 9.30295 9.75007C9.20796 9.56918 9.31025 8.88186 9.07635 9.04107V9.04111Z" fill="white"/>
<path fill-rule="evenodd" clip-rule="evenodd" d="M12.0103 7.24571C12.1491 7.19505 12.8068 6.44988 12.8068 6.44988C12.7727 6.42094 12.7422 6.39922 12.7081 6.37027C12.6715 6.33893 12.6752 6.30759 12.7081 6.27621C12.8713 6.18219 12.8189 5.97597 12.7337 5.88195C12.5924 5.81919 12.4694 5.83973 12.3793 5.88552C12.2648 5.99408 12.2381 6.16766 12.3282 6.27621C12.416 6.31722 12.5036 6.40527 12.4451 6.45349C12.176 6.73807 11.4392 7.22887 11.5245 7.24571C11.5427 7.26983 11.9957 7.26861 12.0103 7.24571ZM8.03862 9.8832C7.79198 10.2723 7.7705 10.8536 7.90661 11.0269C7.97893 11.1087 8.09774 11.1446 8.18564 11.119C8.34062 11.0524 8.40843 10.7415 8.37165 10.6278C8.31991 10.5476 8.2792 10.5349 8.22754 10.6031C8.11849 10.8223 8.07323 10.6719 8.06367 10.5494C8.04695 10.3171 8.06905 10.1031 8.09451 9.93366C8.12165 9.75999 8.0941 9.81309 8.03862 9.8832ZM18.5786 9.26006C18.3401 8.75176 18.0099 8.24948 17.9049 8.05653C17.7999 7.8635 17.0068 6.7239 16.8901 6.59574C16.6325 6.29261 17.3085 6.72199 16.8046 6.12012C16.6125 5.95693 16.6013 5.94699 16.4419 5.81383C16.3615 5.75732 16.1651 5.65409 16.1303 5.8252C16.1128 5.97609 16.1222 6.05789 16.1478 6.18353C16.1675 6.26728 16.2907 6.40754 16.3513 6.48881C17.1559 7.55972 17.8693 8.64118 18.5573 10.0009C18.666 9.94978 18.6422 9.34511 18.5786 9.26006H18.5786Z" fill="white"/>
<path fill-rule="evenodd" clip-rule="evenodd" d="M17.5306 10.9621C17.4837 11.0142 17.6464 11.2372 17.8577 11.2369C18.2113 11.1963 18.5225 10.9997 18.8107 10.4821C18.8878 10.3613 19.0232 10.1031 19.0272 9.90289C19.0541 8.72866 18.9678 7.81494 18.7902 6.96621C18.7788 6.88356 18.7857 6.78637 18.7998 6.76161C18.8228 6.73453 18.9004 6.76173 18.9416 6.69487C19.002 6.63378 18.7811 6.12775 18.6552 5.93286C18.6105 5.84582 18.5949 5.78769 18.5208 5.94309C18.443 6.06934 18.3907 6.28969 18.3968 6.49559C18.5655 7.65187 18.6173 8.66335 18.7275 9.81963C18.7365 9.93143 18.7199 10.0939 18.6448 10.1587C18.3672 10.4458 17.9664 10.7992 17.5306 10.9621ZM22.3064 10.956C22.0527 11.1012 22.0524 11.2683 22.2576 11.2743C22.6111 11.2337 23.0289 11.2046 23.317 10.7738C23.3941 10.6531 23.4857 10.3267 23.4897 10.1264C23.5166 8.95218 23.4742 8.07573 23.2965 7.22708C23.2851 7.14439 23.2482 6.95412 23.2623 6.92931C23.2852 6.87118 23.4004 6.93564 23.4416 6.86874C23.502 6.80769 23.1433 6.35127 23.0173 6.15637C22.9726 6.06938 22.957 6.01125 22.883 6.1666C22.8052 6.2929 22.778 6.51946 22.8091 6.71915C22.9966 7.97468 23.1362 8.91792 23.1649 10.0307C23.1488 10.1364 23.1448 10.1933 23.0948 10.3264C22.9841 10.4668 22.8615 10.6424 22.7466 10.7273C22.6316 10.8121 22.3864 10.8932 22.3064 10.9561V10.956Z" fill="white"/>
<path fill-rule="evenodd" clip-rule="evenodd" d="M22.4971 9.82888C22.4941 9.53525 22.5012 9.28169 22.4915 9.06272C22.4817 8.84371 22.4427 8.66537 22.3661 8.50993C22.2937 8.34324 22.3386 8.20932 22.3046 8.03176C22.2706 7.85427 22.279 7.58845 22.2276 7.37784C22.2136 7.2956 22.1704 7.03217 22.1837 7.00692C22.2047 6.94814 22.2844 7.00875 22.3234 6.94063C22.3817 6.87763 22.121 6.20959 21.9887 6.01883C21.9412 5.9333 21.8548 5.96261 21.7483 6.10165C21.6495 6.19319 21.6862 6.40189 21.7239 6.6004C21.9776 7.91127 22.1668 9.09775 22.1255 10.3456C22.1128 10.4517 22.4997 10.0292 22.4971 9.82888ZM20.6226 8.20303C20.4631 8.20015 20.1288 7.89556 20.0313 7.7171C19.9944 7.61476 20.0181 7.51489 20.0506 7.4564C20.1097 7.41836 20.2006 7.37561 20.2685 7.41661C20.2685 7.41661 20.339 7.5142 20.3253 7.52663C20.4125 7.56795 20.4494 7.54416 20.4583 7.50909C20.4642 7.44763 20.4326 7.41101 20.4322 7.34334C20.4691 7.15985 20.681 7.13131 20.7607 7.24835C20.8191 7.31967 20.8405 7.4713 20.8494 7.57364C20.8484 7.62592 20.7629 7.56458 20.7144 7.57717C20.6658 7.58975 20.6541 7.64529 20.6503 7.6955C20.6415 7.82858 20.6256 8.04211 20.6226 8.20299V8.20303ZM17.6777 10.1545C17.7217 9.75548 17.6615 9.04494 17.6575 8.80952C17.6413 8.25337 17.5496 7.17913 17.5059 6.99966C17.4567 6.66138 17.6464 7.03676 17.6202 6.84012C17.5587 6.50232 17.3694 6.27332 17.147 5.96391C17.0752 5.86323 17.0777 5.84273 16.9669 5.98859C16.8444 6.26382 16.9501 6.4532 16.9818 6.66759C17.1422 7.36607 17.2358 8.00874 17.2794 8.64406C17.323 9.27938 17.3364 9.96633 17.2966 10.6355C17.4168 10.6401 17.6101 10.4429 17.6777 10.1544V10.1545Z" fill="white"/>
<path fill-rule="evenodd" clip-rule="evenodd" d="M23.0403 9.51582C22.7589 9.04837 22.3343 8.54206 22.2209 8.35382C22.1075 8.16554 21.1481 6.93988 21.0259 6.81688C20.6749 6.4518 21.1868 6.75745 20.9587 6.47547C20.7657 6.26567 20.7094 6.19983 20.5443 6.07366C20.4615 6.02068 20.4113 5.91947 20.3841 6.09192C20.3732 6.24343 20.3619 6.41872 20.3722 6.54639C20.3716 6.61739 20.4463 6.75075 20.5104 6.82934C21.3613 7.86452 22.2894 8.92151 23.0366 10.2503C23.1429 10.1945 23.1075 9.59807 23.0403 9.51582Z" fill="white"/>
<path fill-rule="evenodd" clip-rule="evenodd" d="M10.2749 8.65384C10.2547 8.689 10.2096 8.73455 10.2247 8.78168C10.2563 8.82406 10.2815 8.83267 10.3342 8.83498C10.3799 8.83498 10.4437 8.84566 10.4574 8.81899C10.482 8.79219 10.5006 8.73743 10.4802 8.68579C10.4326 8.56807 10.2998 8.61191 10.2749 8.65384Z" fill="#1BA400"/>
<path fill-rule="evenodd" clip-rule="evenodd" d="M19.7671 15.4677C20.1434 15.4815 20.3897 15.4848 20.7244 15.5242C20.7244 15.5242 21.013 15.496 21.116 15.4805C21.5517 15.4394 21.5709 16.0966 21.5709 16.0966C21.5662 16.4821 21.4159 16.5022 21.2241 16.543C21.1145 16.5568 21.0569 16.478 20.9993 16.3941C20.927 16.424 20.8288 16.4283 20.7097 16.412C20.5529 16.4022 20.3961 16.4029 20.2393 16.3932C20.0727 16.3786 19.9841 16.4103 19.8175 16.3958C19.7832 16.4492 19.7386 16.5231 19.6367 16.4993C19.5519 16.49 19.4515 16.2544 19.4811 16.0753C19.5423 15.9468 19.5255 15.9881 19.5191 15.9317C17.9806 15.8929 16.4274 15.8249 14.9183 15.8444C13.7375 15.8492 12.5714 15.8977 11.4052 15.9463C10.783 15.9365 10.3078 15.8395 9.97949 15.3641C10.0089 15.3641 11.5669 15.4514 12.0226 15.4223C12.8654 15.4125 13.6346 15.3447 14.492 15.3204C16.1823 15.3495 17.8581 15.3495 19.5483 15.4659C19.3866 15.3564 19.3808 15.0977 19.6297 15.0344C19.6508 15.02 19.6617 15.1631 19.699 15.1604C19.8981 15.1456 19.8108 15.4127 19.767 15.4677L19.7671 15.4677ZM12.9807 6.24203C12.7246 6.96702 13.1275 7.76006 13.4069 7.68284C13.6084 7.76545 13.7367 7.38581 13.8193 6.96986C13.8757 6.85311 13.9183 6.84069 13.9473 6.90069C13.9399 7.4538 13.9875 7.57632 14.1311 7.74422C14.4514 7.98897 14.7165 7.77548 14.7372 7.75486L14.9867 7.50788C15.0422 7.45003 15.1161 7.44666 15.1945 7.49761C15.2708 7.56621 15.2601 7.68467 15.4232 7.76683C15.5605 7.82123 15.8541 7.77942 15.9221 7.66226C16.0136 7.50694 16.0356 7.4536 16.078 7.3947C16.1433 7.30859 16.2547 7.34687 16.2547 7.37407C16.2443 7.4221 16.1789 7.47016 16.2236 7.55663C16.3012 7.61432 16.3192 7.57721 16.3651 7.56439C16.5276 7.48746 16.6496 7.1374 16.6496 7.1374C16.6569 7.00717 16.5831 7.01793 16.5353 7.04476C16.473 7.08252 16.4689 7.09457 16.4065 7.13233C16.3271 7.14402 16.1729 7.19618 16.0967 7.07935C16.0189 6.93885 16.0178 6.74281 15.9583 6.60114C15.9583 6.59083 15.8551 6.37794 15.9512 6.3643C15.9997 6.37323 16.1031 6.40035 16.1196 6.31409C16.1705 6.22997 16.0107 5.99184 15.9013 5.87156C15.8064 5.76836 15.6749 5.75594 15.5479 5.86128C15.4591 5.94227 15.4719 6.03276 15.4544 6.11854C15.4318 6.21702 15.4366 6.3382 15.5376 6.46847C15.6263 6.64169 15.7882 6.8648 15.735 7.17853C15.735 7.17853 15.6405 7.32682 15.4757 7.30742C15.407 7.2926 15.2956 7.26373 15.2362 6.82863C15.1911 6.49932 15.2468 6.03852 15.1056 5.82252C15.0546 5.69208 15.0174 5.56612 14.8931 5.78923C14.8597 5.87683 14.7165 6.00978 14.8204 6.28323C14.9054 6.45658 14.94 6.73871 14.9014 7.05268C14.8425 7.14187 14.8295 7.17207 14.7522 7.2613C14.6437 7.37679 14.526 7.34732 14.4358 7.30417C14.3516 7.24794 14.2856 7.21888 14.2472 7.04026C14.2541 6.75556 14.2701 6.28949 14.2176 6.19064C14.1401 6.03751 14.0123 6.09288 13.9577 6.13916C13.6954 6.3766 13.5659 6.77724 13.4867 7.09628C13.4139 7.32877 13.3365 7.26215 13.2821 7.16834C13.1497 7.04541 13.1407 6.08403 12.9807 6.24211V6.24203Z" fill="white"/>
<path fill-rule="evenodd" clip-rule="evenodd" d="M13.7516 7.81677C13.8679 7.73517 13.8135 7.67818 13.9875 7.85038C14.2052 8.21907 14.3453 8.69659 14.3662 9.11964C14.3571 9.22389 14.4313 9.28985 14.4652 9.2672C14.4854 9.02245 15.0865 8.68145 15.6376 8.6316C15.7219 8.61345 15.6809 8.45351 15.6946 8.37195C15.6616 8.06899 15.8666 7.79314 16.1539 7.77114C16.5449 7.82838 16.6751 8.03509 16.6817 8.35064C16.6395 8.9564 16.0022 9.05911 15.6441 9.10742C15.5891 9.128 15.5663 9.15309 15.6441 9.18276L17.1444 9.1895L17.2209 9.23326C17.2301 9.2687 17.1991 9.23915 17.1398 9.33573C17.0806 9.4323 16.9933 9.65501 16.9888 9.80371C16.5418 9.94604 16.0794 10.0084 15.6095 10.0647C15.4463 10.1464 15.3653 10.2553 15.3989 10.3779C15.4538 10.5139 15.8154 10.6498 15.8154 10.6562C15.8841 10.6988 15.9653 10.7984 15.796 11.0023C15.0642 10.9704 14.497 10.662 14.3007 10.2268C14.2415 10.1813 14.1778 10.2265 14.137 10.2853C13.8513 10.65 13.5701 10.9785 13.083 11.1528C12.7925 11.2247 12.4951 11.1087 12.3547 10.9203C12.2607 10.8131 12.2642 10.6947 12.2297 10.6691C12.0727 10.7379 10.7216 11.3063 10.8928 11.0415C11.2216 10.693 11.7909 10.437 12.2937 10.0931C12.33 9.97783 12.396 9.58799 12.5945 9.46101C12.606 9.46194 12.5631 9.68996 12.5674 9.78609C12.5696 9.86501 12.5615 9.89595 12.579 9.87565C12.6129 9.85421 13.2229 9.37957 13.2701 9.23404C13.3295 9.15057 13.2879 8.93919 13.2879 8.93278C13.1735 8.64082 13.013 8.61601 12.9535 8.47096C12.9 8.27826 12.9242 8.05831 13.0354 7.99701C13.1342 7.90823 13.2512 7.91919 13.3591 8.01621C13.4824 8.1255 13.5918 8.33907 13.6234 8.49816C13.6023 8.56109 13.4622 8.45635 13.4136 8.48761C13.4996 8.57578 13.5398 8.67751 13.5708 8.80198C13.6503 9.13523 13.6261 9.26477 13.5461 9.48025C13.2752 10.0441 12.9291 10.2124 12.6262 10.4213C12.6182 10.4241 12.6128 10.5644 12.7267 10.6402C12.766 10.6811 12.9239 10.702 13.1097 10.6431C13.4686 10.4493 13.8412 10.0922 14.0262 9.69447C14.0799 9.39362 14.0055 9.07458 13.9264 8.79634C13.8074 8.52443 13.6672 8.13617 13.6672 8.12976C13.6626 7.96019 13.6765 7.90137 13.7516 7.81677H13.7516ZM9.82352 6.24857C9.99621 6.33012 10.3209 6.29541 10.3071 6.01969C10.3071 5.99533 10.3009 5.91284 10.2984 5.89048C10.2631 5.8092 10.167 5.8293 10.1452 5.91321C10.1383 5.94069 10.1574 5.98547 10.1323 5.99927C10.1178 6.01368 10.0627 6.0052 10.065 5.92904C10.065 5.90476 10.0469 5.8787 10.036 5.86328C10.0251 5.85621 10.0182 5.85426 9.99842 5.85426C9.97431 5.8552 9.97472 5.86141 9.96152 5.88146C9.95591 5.90184 9.9482 5.92177 9.9482 5.94491C9.94517 5.97203 9.93483 5.98169 9.9147 5.98571C9.8922 5.98571 9.89728 5.98815 9.87904 5.97666C9.86821 5.96489 9.85468 5.96042 9.85468 5.94041C9.85468 5.91966 9.84993 5.88609 9.84361 5.87241C9.83406 5.85991 9.81869 5.85414 9.80138 5.84972C9.70709 5.85004 9.70053 5.95656 9.70598 5.997C9.69889 6.00463 9.69491 6.19571 9.82352 6.24857Z" fill="white"/>
<path fill-rule="evenodd" clip-rule="evenodd" d="M14.887 8.37124C15.0597 8.4528 15.4707 8.40587 15.3706 8.14236C15.3706 8.118 15.3643 8.03547 15.3619 8.01315C15.3266 7.93187 15.2305 7.95197 15.2087 8.03588C15.2018 8.06336 15.2209 8.10814 15.1958 8.12194C15.1813 8.13635 15.1261 8.12787 15.1284 8.05171C15.1284 8.02744 15.1104 8.00137 15.0995 7.98595C15.0886 7.97888 15.0817 7.97694 15.0619 7.97694C15.0378 7.97787 15.0382 7.98408 15.025 8.00413C15.0194 8.02451 15.0117 8.04445 15.0117 8.06759C15.0086 8.0947 14.9983 8.10436 14.9782 8.10838C14.9557 8.10838 14.9608 8.11082 14.9425 8.09933C14.9317 8.08756 14.9182 8.08309 14.9182 8.06308C14.9182 8.04234 14.9134 8.00876 14.9071 7.99508C14.8975 7.98258 14.8822 7.97681 14.8649 7.97239C14.7706 7.97271 14.764 8.07924 14.7695 8.11967C14.7624 8.1273 14.7584 8.31838 14.887 8.37124ZM17.8389 7.49316C18.0116 7.57472 18.3362 7.54001 18.3225 7.26428C18.3225 7.23993 18.3162 7.15744 18.3137 7.13507C18.2785 7.0538 18.1824 7.07389 18.1605 7.1578C18.1537 7.18528 18.1728 7.23006 18.1476 7.24386C18.1332 7.25827 18.078 7.24979 18.0803 7.17363C18.0803 7.14936 18.0623 7.12329 18.0514 7.10787C18.0405 7.1008 18.0335 7.09886 18.0138 7.09886C17.9897 7.09979 17.9901 7.106 17.9769 7.12606C17.9713 7.14643 17.9635 7.16637 17.9635 7.18951C17.9605 7.21662 17.9502 7.22629 17.93 7.2303C17.9075 7.2303 17.9126 7.23274 17.8944 7.22125C17.8836 7.20948 17.87 7.20501 17.87 7.185C17.87 7.16426 17.8653 7.13068 17.859 7.117C17.8494 7.1045 17.834 7.09873 17.8167 7.09431C17.7224 7.09463 17.7159 7.20116 17.7213 7.24159C17.7142 7.24922 17.7103 7.4403 17.8389 7.49316ZM19.3677 9.69871C19.0668 10.0346 19.1994 10.59 19.2674 10.7097C19.3666 10.9062 19.4465 11.0323 19.6396 11.1295C19.8155 11.2577 19.9525 11.1776 20.028 11.0878C20.205 10.9062 20.2071 10.4426 20.2901 10.3507C20.3484 10.182 20.4951 10.2108 20.5664 10.2856C20.6354 10.3838 20.7167 10.4471 20.8181 10.5006C20.9831 10.6448 21.1802 10.6711 21.3744 10.5398C21.5071 10.466 21.5934 10.3708 21.671 10.1818C21.7574 9.9532 21.7093 8.89699 21.692 8.27101C21.6854 8.22189 21.5205 7.41018 21.5205 7.40113C21.5205 7.39204 21.4986 6.98685 21.4805 6.89032C21.4773 6.85114 21.4675 6.8399 21.509 6.84485C21.553 6.88151 21.559 6.88382 21.5865 6.89588C21.6308 6.90392 21.6706 6.8291 21.6438 6.76029L21.2318 6.00794C21.1987 5.9757 21.1561 5.9403 21.1036 6.01703C21.0535 6.06051 21.0002 6.13922 21.0018 6.24043C21.014 6.41872 21.0457 6.6001 21.0578 6.77844L21.2226 7.69394C21.2746 8.34656 21.2876 8.88067 21.3394 9.53328C21.3322 9.80962 21.2454 10.0505 21.164 10.0853C21.164 10.0853 21.0402 10.1563 20.9572 10.0779C20.8968 10.0539 20.6551 9.67902 20.6551 9.67902C20.5315 9.56686 20.4501 9.59893 20.3621 9.67902C20.1197 9.91086 20.01 10.3445 19.8452 10.6437C19.8027 10.7105 19.6826 10.7676 19.5496 10.6388C19.2117 10.1818 19.4098 9.5315 19.3677 9.69871ZM17.9164 5.89248C18.071 5.95662 18.1802 6.26689 18.1446 6.4184C18.1138 6.60582 18.0318 6.80823 17.9728 6.78189C17.9086 6.75834 18.0165 6.59555 17.9549 6.42481C17.9206 6.31366 17.7095 6.11056 17.7317 6.05068C17.6882 5.92524 17.8215 5.87036 17.9164 5.89248Z" fill="white"/>
<path fill-rule="evenodd" clip-rule="evenodd" d="M19.8659 9.88194C19.8984 9.50931 19.8435 9.2821 19.8337 9.06309C19.824 8.84407 19.5836 7.173 19.5348 7.00729C19.476 6.69398 19.7685 6.96528 19.7365 6.78304C19.6354 6.55327 19.3835 6.21877 19.3044 6.0192C19.2569 5.93371 19.2768 5.85763 19.1703 5.99671C19.0716 6.31644 19.0373 6.57779 19.075 6.77635C19.3286 8.08717 19.5888 9.17716 19.5475 10.425C19.6678 10.4258 19.8065 10.1525 19.8659 9.88198V9.88194ZM22.509 6.41996C22.6501 6.48938 22.7327 6.87824 22.7171 6.98935C22.6891 7.19229 22.6142 7.41142 22.5605 7.38288C22.502 7.35739 22.5722 7.08195 22.5441 6.99629C22.5129 6.87597 22.3205 6.6561 22.3407 6.59127C22.301 6.45548 22.4225 6.39605 22.509 6.41996ZM12.027 9.1772C12.1619 9.22819 12.2411 9.51394 12.2261 9.59562C12.1992 9.74468 12.1276 9.90573 12.0762 9.88478C12.0203 9.86602 12.0875 9.66362 12.0606 9.60069C12.0492 9.44805 11.862 9.36901 11.8659 9.30309C11.8309 9.18187 11.9442 9.15958 12.027 9.17724V9.1772Z" fill="white"/>
<path fill-rule="evenodd" clip-rule="evenodd" d="M15.2879 9.60616C15.462 9.61712 15.549 9.75239 15.3859 9.80914C15.225 9.86366 15.0704 9.90628 15.0697 10.1365C15.1292 10.4573 14.9881 10.3472 14.9039 10.3036C14.8047 10.2331 14.5264 10.0633 14.4867 9.69673C14.4807 9.60925 14.5496 9.53561 14.6605 9.53614C14.8276 9.58107 15.0741 9.58436 15.2878 9.60616H15.2879Z" fill="#1B9D00"/>
<path fill-rule="evenodd" clip-rule="evenodd" d="M8.42195 5.8001C8.62099 5.85954 8.63276 6.14922 8.61808 6.23391C8.59156 6.38849 8.52104 6.55542 8.47041 6.53366C8.4153 6.51426 8.46823 6.30442 8.44179 6.23914C8.41227 6.14748 8.2441 5.97998 8.26316 5.93062C8.22573 5.82714 8.34036 5.78184 8.42195 5.8001ZM12.3529 7.16573C12.2002 7.24753 12.1409 7.49131 12.236 7.63331C12.3248 7.75835 12.4651 7.71199 12.4838 7.71199C12.6334 7.73054 12.7222 7.43423 12.7222 7.43423C12.7222 7.43423 12.7269 7.35093 12.5492 7.50836C12.4744 7.52224 12.4651 7.49444 12.4464 7.45274C12.4308 7.37561 12.4339 7.29848 12.4698 7.22131C12.4963 7.14726 12.4386 7.11483 12.3529 7.16573ZM13.4984 5.68806C13.4216 5.73901 13.2689 5.89571 13.2642 6.07627C13.2596 6.17813 13.2404 6.1778 13.3077 6.24263C13.3564 6.31213 13.4055 6.30588 13.5037 6.25493C13.5601 6.21377 13.5792 6.18645 13.5982 6.11744C13.6216 6.00174 13.4746 6.17232 13.4559 6.04355C13.4232 5.92396 13.5176 5.875 13.6064 5.75931C13.6094 5.68002 13.6076 5.62388 13.4984 5.68806ZM14.4212 5.85044C14.3882 5.92278 14.3485 6.30077 14.3551 6.30077C14.3287 6.41338 14.4741 6.46157 14.5403 6.3168C14.6394 6.05143 14.6394 5.93886 14.646 5.82625C14.6152 5.65477 14.4984 5.66013 14.4212 5.85044ZM20.2397 8.78224C20.2595 8.7626 21.0596 8.19958 21.0596 8.19958C21.1411 8.1712 21.1235 8.48984 21.086 8.48764C21.1014 8.55089 20.297 9.09211 20.2397 9.07031C20.2 9.09869 20.1603 8.85211 20.2397 8.78224H20.2397ZM20.9691 8.77737C21.1101 8.84679 21.1663 9.2553 21.1507 9.36641C21.1557 9.58246 21.0148 9.75572 20.961 9.72722C20.9025 9.70173 20.9661 9.45901 20.938 9.37335C20.9069 9.25303 20.7871 9.02659 20.8073 8.96176C20.7676 8.82597 20.8826 8.75346 20.9691 8.77737ZM16.2104 10.5368C16.266 10.4562 16.4379 10.3403 16.4418 10.3403C16.5211 10.301 16.5986 10.3711 16.5939 10.3665C16.6071 10.4451 16.5437 10.5182 16.5636 10.623C16.5809 10.6652 16.5936 10.7121 16.6718 10.6942C16.7988 10.5953 16.9165 10.5889 17.0435 10.5826C17.1409 10.5884 17.1447 10.7516 17.0832 10.7528C16.8486 10.8033 16.7435 10.8655 16.576 10.9288C16.4967 10.9746 16.4286 10.9165 16.4286 10.9099C16.4286 10.9034 16.3822 10.8654 16.4146 10.7613C16.4203 10.6778 16.3864 10.6321 16.3162 10.6415C16.2633 10.6699 16.2167 10.6886 16.1903 10.6284C16.1799 10.584 16.1765 10.5623 16.2104 10.5368ZM21.8108 10.7568C21.845 10.8 21.8672 10.84 21.808 10.9109C21.7519 10.9619 21.7124 10.9899 21.6563 11.0408C21.6298 11.0855 21.6128 11.1534 21.6939 11.1751C21.8435 11.2167 22.1895 10.9945 22.1895 10.9899C22.2456 10.9482 22.2269 10.8695 22.2222 10.8695C22.1895 10.8325 22.1157 10.8545 22.0662 10.8485C22.0426 10.8485 21.9651 10.8369 22.002 10.769C22.0327 10.7268 22.0437 10.7009 22.0646 10.6489C22.088 10.598 22.0679 10.564 21.9837 10.5362C21.898 10.5208 21.8638 10.5285 21.7687 10.5362C21.7173 10.547 21.6997 10.5698 21.6904 10.6315C21.6941 10.7251 21.7515 10.7198 21.8108 10.7568Z" fill="white"/>
<path fill-rule="evenodd" clip-rule="evenodd" d="M16.2412 8.45242C16.2193 8.48997 16.1451 8.48815 16.0756 8.44836C16.006 8.40858 15.9674 8.34578 15.9894 8.30819C16.0113 8.27059 16.0855 8.27246 16.155 8.31233C16.2245 8.35219 16.2631 8.41487 16.2412 8.45242ZM12.5894 6.27675C12.5479 6.28682 12.4935 6.25012 12.4681 6.19479C12.4426 6.13946 12.4557 6.08644 12.4973 6.07637C12.5388 6.0663 12.5932 6.10296 12.6186 6.15829C12.6441 6.21362 12.631 6.26668 12.5894 6.27675Z" fill="#259F00"/>
<path fill-rule="evenodd" clip-rule="evenodd" d="M19.811 15.9727C20.1944 15.9912 20.5546 15.977 20.938 15.9955C21.0074 16.054 20.9578 16.1975 20.9115 16.1872C20.7869 16.1841 20.7151 16.181 20.5904 16.1779C20.5861 16.057 20.2745 16.0768 20.2835 16.1818C20.1152 16.2018 19.9634 16.176 19.7951 16.1698C19.7453 16.1085 19.7517 15.998 19.8111 15.9727H19.811Z" fill="#209000"/>
</svg>
