<svg width="24" height="24" viewBox="0 0 24 24" fill="none" xmlns="http://www.w3.org/2000/svg">
<path d="M7.36814 20.2979C6.89781 20.2979 6.49581 20.1311 6.16214 19.7974C5.82831 19.4637 5.66139 19.0616 5.66139 18.5911V6.06039H5.38364C5.18964 6.06039 5.02414 5.99189 4.88714 5.85489C4.75014 5.71772 4.68164 5.55297 4.68164 5.36064C4.68164 5.16831 4.75014 5.00364 4.88714 4.86664C5.02414 4.7298 5.18964 4.66139 5.38364 4.66139H9.04039V4.64889C9.04039 4.42272 9.12239 4.22755 9.28639 4.06339C9.45056 3.89922 9.64739 3.81714 9.87689 3.81714H14.1479C14.3742 3.81714 14.5695 3.89922 14.7336 4.06339C14.8976 4.22755 14.9796 4.42272 14.9796 4.64889V4.66139H18.6431C18.8326 4.66139 18.9959 4.73006 19.1329 4.86739C19.2699 5.00472 19.3384 5.16855 19.3384 5.35889C19.3384 5.55289 19.2697 5.71831 19.1324 5.85514C18.9952 5.99197 18.8315 6.06039 18.6411 6.06039H18.3584V18.5911C18.3584 19.0616 18.1916 19.4637 17.8579 19.7974C17.5242 20.1311 17.1222 20.2979 16.6519 20.2979H7.36814ZM10.2046 16.9269C10.3956 16.9269 10.5599 16.8591 10.6974 16.7236C10.8349 16.5883 10.9036 16.4236 10.9036 16.2296V8.72964C10.9036 8.53581 10.835 8.37039 10.6976 8.23339C10.5605 8.09639 10.3967 8.02789 10.2064 8.02789C10.0124 8.02789 9.84689 8.09639 9.70989 8.23339C9.57306 8.37039 9.50464 8.53581 9.50464 8.72964V16.2296C9.50464 16.4236 9.57356 16.5883 9.71139 16.7236C9.84922 16.8591 10.0136 16.9269 10.2046 16.9269ZM13.8161 16.9269C14.0071 16.9269 14.1714 16.8591 14.3089 16.7236C14.4464 16.5883 14.5151 16.4236 14.5151 16.2296V8.72964C14.5151 8.53581 14.4466 8.37039 14.3094 8.23339C14.1721 8.09639 14.0082 8.02789 13.8179 8.02789C13.6239 8.02789 13.4585 8.09639 13.3216 8.23339C13.1846 8.37039 13.1161 8.53581 13.1161 8.72964V16.2296C13.1161 16.4236 13.1851 16.5883 13.3229 16.7236C13.4607 16.8591 13.6251 16.9269 13.8161 16.9269Z" fill="#E10D0D"/>
</svg>
