<svg width="32" height="22" viewBox="0 0 32 22" fill="none" xmlns="http://www.w3.org/2000/svg">
<path d="M29.6034 0.51709H2.39656C1.07294 0.51709 0 1.59003 0 2.91365V19.0861C0 20.4097 1.07294 21.4827 2.39656 21.4827H29.6034C30.927 21.4827 32 20.4097 32 19.0861V2.91365C32 1.59003 30.9271 0.51709 29.6034 0.51709Z" fill="#F5F5F5"/>
<path d="M0.131812 2.12984H31.8681C31.5434 1.19128 30.6524 0.51709 29.6034 0.51709H2.39656C1.34756 0.51709 0.456625 1.19128 0.131812 2.12984ZM0 6.96796H32V8.58065H0V6.96796ZM0 3.74234H32V5.35503H0V3.74234ZM0 11.2545C1.65726e-05 11.4008 0.0581525 11.5411 0.161622 11.6446C0.265092 11.7481 0.405422 11.8062 0.55175 11.8062H32V10.1935H0V11.2545ZM0 16.6448H32V18.2576H0V16.6448ZM31.8682 19.8698H0.131812C0.456625 20.8084 1.34763 21.4826 2.39656 21.4826H29.6034C30.6524 21.4826 31.5434 20.8084 31.8682 19.8698ZM0 13.4192H32V15.0319H0V13.4192Z" fill="#FF4B55"/>
<path d="M0.55175 11.8063H14.3449C14.4912 11.8063 14.6315 11.7481 14.735 11.6447C14.8385 11.5412 14.8966 11.4009 14.8966 11.2545V1.06884C14.8966 0.922506 14.8385 0.782167 14.735 0.678694C14.6315 0.575221 14.4912 0.51709 14.3449 0.51709H2.39656C1.07294 0.517152 0 1.59009 0 2.91371V11.2545C0 11.4009 0.0581306 11.5412 0.161604 11.6447C0.265077 11.7481 0.405417 11.8063 0.55175 11.8063Z" fill="#41479B"/>
<path d="M1.54915 1.78362L1.67127 2.14988L2.05733 2.15281C2.10733 2.15325 2.12802 2.217 2.08783 2.24669L1.77727 2.476L1.89377 2.84406C1.9089 2.89169 1.85458 2.93119 1.8139 2.90206L1.49983 2.67763L1.18577 2.90212C1.14508 2.93125 1.0909 2.89175 1.1059 2.84412L1.2224 2.47606L0.911835 2.24675C0.871647 2.217 0.892335 2.15325 0.942335 2.15287L1.3284 2.14994L1.45052 1.78369C1.46627 1.73619 1.53327 1.73619 1.54915 1.78362ZM1.54915 3.6995L1.67127 4.06575L2.05733 4.06869C2.10733 4.06913 2.12802 4.13281 2.08783 4.16256L1.77727 4.39194L1.89377 4.76C1.9089 4.80762 1.85458 4.84713 1.8139 4.818L1.49983 4.59356L1.18577 4.81806C1.14508 4.84712 1.0909 4.80769 1.1059 4.76006L1.2224 4.392L0.911835 4.16262C0.871647 4.13287 0.892335 4.06919 0.942335 4.06875L1.3284 4.06581L1.45052 3.69956C1.46627 3.65212 1.53327 3.65212 1.54915 3.6995ZM1.54915 5.61544L1.67127 5.98169L2.05733 5.98463C2.10733 5.98506 2.12802 6.04875 2.08783 6.0785L1.77727 6.30788L1.89377 6.67594C1.9089 6.72356 1.85458 6.76306 1.8139 6.73394L1.49983 6.5095L1.18577 6.734C1.14508 6.76306 1.0909 6.72369 1.1059 6.676L1.2224 6.30794L0.911835 6.07856C0.871647 6.04881 0.892335 5.98513 0.942335 5.98469L1.3284 5.98175L1.45052 5.6155C1.46627 5.568 1.53327 5.568 1.54915 5.61544ZM1.54915 7.53131L1.67127 7.89756L2.05733 7.9005C2.10733 7.90094 2.12802 7.96469 2.08783 7.99437L1.77727 8.22375L1.89377 8.59181C1.9089 8.63944 1.85458 8.67894 1.8139 8.64981L1.49983 8.42537L1.18577 8.64988C1.14508 8.67894 1.0909 8.6395 1.1059 8.59187L1.2224 8.22381L0.911835 7.99444C0.871647 7.96481 0.892335 7.901 0.942335 7.90056L1.3284 7.89762L1.45052 7.53138C1.46627 7.48388 1.53327 7.48387 1.54915 7.53131ZM1.54915 9.44719L1.67127 9.81344L2.05733 9.81637C2.10733 9.81681 2.12802 9.8805 2.08783 9.91025L1.77727 10.1396L1.89377 10.5077C1.9089 10.5553 1.85458 10.5948 1.8139 10.5657L1.49983 10.3412L1.18577 10.5657C1.14508 10.5948 1.0909 10.5554 1.1059 10.5077L1.2224 10.1397L0.911835 9.91031C0.871647 9.88056 0.892335 9.81687 0.942335 9.81644L1.3284 9.8135L1.45052 9.44725C1.46627 9.39981 1.53327 9.39981 1.54915 9.44719ZM3.03621 2.72294L3.15833 3.08919L3.5444 3.09213C3.5944 3.09256 3.61509 3.15631 3.5749 3.186L3.26433 3.41538L3.38084 3.78344C3.39596 3.83106 3.34165 3.87056 3.30096 3.84144L2.9869 3.61694L2.67283 3.84144C2.63215 3.8705 2.57796 3.83106 2.59296 3.78344L2.70946 3.41538L2.3989 3.186C2.35871 3.15625 2.3794 3.09256 2.4294 3.09213L2.81546 3.08919L2.93759 2.72294C2.95334 2.67556 3.0204 2.67556 3.03621 2.72294ZM3.03621 4.63887L3.15833 5.00512L3.5444 5.00806C3.5944 5.0085 3.61509 5.07225 3.5749 5.10194L3.26433 5.33131L3.38084 5.69937C3.39596 5.747 3.34165 5.7865 3.30096 5.75738L2.9869 5.53287L2.67283 5.75738C2.63215 5.78644 2.57796 5.74706 2.59296 5.69937L2.70946 5.33131L2.3989 5.10194C2.35871 5.07231 2.3794 5.0085 2.4294 5.00806L2.81546 5.00512L2.93759 4.63887C2.95334 4.59144 3.0204 4.59144 3.03621 4.63887ZM3.03621 6.55475L3.15833 6.921L3.5444 6.92394C3.5944 6.92438 3.61509 6.98806 3.5749 7.01781L3.26433 7.24719L3.38084 7.61525C3.39596 7.66288 3.34165 7.70237 3.30096 7.67325L2.9869 7.44875L2.67283 7.67325C2.63215 7.70231 2.57796 7.66288 2.59296 7.61525L2.70946 7.24719L2.3989 7.01781C2.35871 6.98806 2.3794 6.92438 2.4294 6.92394L2.81546 6.921L2.93759 6.55475C2.95334 6.50731 3.0204 6.50731 3.03621 6.55475ZM3.03621 8.47063L3.15833 8.83688L3.5444 8.83981C3.5944 8.84025 3.61509 8.90394 3.5749 8.93369L3.26433 9.16306L3.38084 9.53112C3.39596 9.57875 3.34165 9.61825 3.30096 9.58913L2.9869 9.36462L2.67283 9.58913C2.63215 9.61825 2.57796 9.57875 2.59296 9.53112L2.70946 9.16306L2.3989 8.93369C2.35871 8.90394 2.3794 8.84025 2.4294 8.83981L2.81546 8.83688L2.93759 8.47063C2.95334 8.42325 3.0204 8.42325 3.03621 8.47063ZM4.52327 1.78362L4.6454 2.14988L5.03146 2.15281C5.08146 2.15325 5.10215 2.217 5.06196 2.24669L4.7514 2.476L4.8679 2.84406C4.88302 2.89169 4.82871 2.93119 4.78802 2.90206L4.47396 2.67756L4.1599 2.90206C4.11921 2.93119 4.06502 2.89169 4.08002 2.84406L4.19652 2.476L3.88596 2.24669C3.84577 2.21694 3.86646 2.15319 3.91646 2.15281L4.30252 2.14988L4.42465 1.78362C4.4404 1.73619 4.50746 1.73619 4.52327 1.78362ZM4.52327 3.6995L4.6454 4.06575L5.03146 4.06869C5.08146 4.06913 5.10215 4.13281 5.06196 4.16256L4.7514 4.39194L4.8679 4.76C4.88302 4.80762 4.82871 4.84713 4.78802 4.818L4.47396 4.5935L4.1599 4.818C4.11921 4.84706 4.06502 4.80762 4.08002 4.76L4.19652 4.39194L3.88596 4.16256C3.84577 4.13281 3.86646 4.06913 3.91646 4.06869L4.30252 4.06575L4.42465 3.6995C4.4404 3.65212 4.50746 3.65212 4.52327 3.6995ZM4.52327 5.61544L4.6454 5.98169L5.03146 5.98463C5.08146 5.98506 5.10215 6.04875 5.06196 6.0785L4.7514 6.30788L4.8679 6.67594C4.88302 6.72356 4.82871 6.76306 4.78802 6.73394L4.47396 6.50944L4.1599 6.73394C4.11921 6.763 4.06502 6.72362 4.08002 6.67594L4.19652 6.30788L3.88596 6.0785C3.84577 6.04875 3.86646 5.98506 3.91646 5.98463L4.30252 5.98169L4.42465 5.61544C4.4404 5.568 4.50746 5.568 4.52327 5.61544ZM4.52327 7.53131L4.6454 7.89756L5.03146 7.9005C5.08146 7.90094 5.10215 7.96469 5.06196 7.99437L4.7514 8.22375L4.8679 8.59181C4.88302 8.63944 4.82871 8.67894 4.78802 8.64981L4.47396 8.42531L4.1599 8.64981C4.11921 8.67887 4.06502 8.63944 4.08002 8.59181L4.19652 8.22375L3.88596 7.99437C3.84577 7.96475 3.86646 7.90094 3.91646 7.9005L4.30252 7.89756L4.42465 7.53131C4.4404 7.48387 4.50746 7.48387 4.52327 7.53131ZM4.52327 9.44719L4.6454 9.81344L5.03146 9.81637C5.08146 9.81681 5.10215 9.8805 5.06196 9.91025L4.7514 10.1396L4.8679 10.5077C4.88302 10.5553 4.82871 10.5948 4.78802 10.5657L4.47396 10.3412L4.1599 10.5657C4.11921 10.5947 4.06502 10.5553 4.08002 10.5077L4.19652 10.1396L3.88596 9.91025C3.84577 9.8805 3.86646 9.81681 3.91646 9.81637L4.30252 9.81344L4.42465 9.44719C4.4404 9.39981 4.50746 9.39981 4.52327 9.44719ZM6.0104 2.72294L6.13252 3.08919L6.51859 3.09213C6.56859 3.09256 6.58927 3.15631 6.54909 3.186L6.23852 3.41538L6.35502 3.78344C6.37015 3.83106 6.31583 3.87056 6.27515 3.84144L5.96108 3.61694L5.64702 3.84144C5.60634 3.8705 5.55215 3.83106 5.56715 3.78344L5.68365 3.41538L5.37309 3.186C5.3329 3.15625 5.35358 3.09256 5.40358 3.09213L5.78965 3.08919L5.91177 2.72294C5.92746 2.67556 5.99459 2.67556 6.0104 2.72294ZM6.0104 4.63887L6.13252 5.00512L6.51859 5.00806C6.56859 5.0085 6.58927 5.07225 6.54909 5.10194L6.23852 5.33131L6.35502 5.69937C6.37015 5.747 6.31583 5.7865 6.27515 5.75738L5.96108 5.53287L5.64702 5.75738C5.60634 5.78644 5.55215 5.74706 5.56715 5.69937L5.68365 5.33131L5.37309 5.10194C5.3329 5.07231 5.35358 5.0085 5.40358 5.00806L5.78965 5.00512L5.91177 4.63887C5.92746 4.59144 5.99459 4.59144 6.0104 4.63887ZM6.0104 6.55475L6.13252 6.921L6.51859 6.92394C6.56859 6.92438 6.58927 6.98806 6.54909 7.01781L6.23852 7.24719L6.35502 7.61525C6.37015 7.66288 6.31583 7.70237 6.27515 7.67325L5.96108 7.44875L5.64702 7.67325C5.60634 7.70231 5.55215 7.66288 5.56715 7.61525L5.68365 7.24719L5.37309 7.01781C5.3329 6.98806 5.35358 6.92438 5.40358 6.92394L5.78965 6.921L5.91177 6.55475C5.92746 6.50731 5.99459 6.50731 6.0104 6.55475ZM6.0104 8.47063L6.13252 8.83688L6.51859 8.83981C6.56859 8.84025 6.58927 8.90394 6.54909 8.93369L6.23852 9.16306L6.35502 9.53112C6.37015 9.57875 6.31583 9.61825 6.27515 9.58913L5.96108 9.36462L5.64702 9.58913C5.60634 9.61825 5.55215 9.57875 5.56715 9.53112L5.68365 9.16306L5.37309 8.93369C5.3329 8.90394 5.35358 8.84025 5.40358 8.83981L5.78965 8.83688L5.91177 8.47063C5.92746 8.42325 5.99459 8.42325 6.0104 8.47063ZM7.49746 1.78362L7.61959 2.14988L8.00565 2.15281C8.05565 2.15325 8.07633 2.217 8.03615 2.24669L7.72558 2.476L7.84208 2.84406C7.85721 2.89169 7.8029 2.93119 7.76221 2.90206L7.44808 2.67763L7.13402 2.90212C7.09334 2.93125 7.03915 2.89175 7.05415 2.84412L7.17065 2.47606L6.86009 2.24675C6.8199 2.217 6.84058 2.15325 6.89058 2.15287L7.27665 2.14994L7.39877 1.78369C7.41459 1.73619 7.48165 1.73619 7.49746 1.78362ZM7.49746 3.6995L7.61959 4.06575L8.00565 4.06869C8.05565 4.06913 8.07633 4.13281 8.03615 4.16256L7.72558 4.39194L7.84208 4.76C7.85721 4.80762 7.8029 4.84713 7.76221 4.818L7.44808 4.5935L7.13402 4.818C7.09334 4.84706 7.03915 4.80762 7.05415 4.76L7.17065 4.39194L6.86009 4.16256C6.8199 4.13281 6.84058 4.06913 6.89058 4.06869L7.27665 4.06575L7.39877 3.6995C7.41459 3.65212 7.48165 3.65212 7.49746 3.6995ZM7.49746 5.61544L7.61959 5.98169L8.00565 5.98463C8.05565 5.98506 8.07633 6.04875 8.03615 6.0785L7.72558 6.30788L7.84208 6.67594C7.85721 6.72356 7.8029 6.76306 7.76221 6.73394L7.44808 6.50938L7.13402 6.73387C7.09334 6.76294 7.03915 6.7235 7.05415 6.67588L7.17065 6.30781L6.86009 6.07844C6.8199 6.04869 6.84058 5.985 6.89058 5.98456L7.27665 5.98163L7.39877 5.61537C7.41459 5.568 7.48165 5.568 7.49746 5.61544ZM7.49746 7.53131L7.61959 7.89756L8.00565 7.9005C8.05565 7.90094 8.07633 7.96469 8.03615 7.99437L7.72558 8.22375L7.84208 8.59181C7.85721 8.63944 7.8029 8.67894 7.76221 8.64981L7.44808 8.42531L7.13402 8.64981C7.09334 8.67887 7.03915 8.63944 7.05415 8.59181L7.17065 8.22375L6.86009 7.99437C6.8199 7.96475 6.84058 7.90094 6.89058 7.9005L7.27665 7.89756L7.39877 7.53131C7.41459 7.48387 7.48165 7.48387 7.49746 7.53131ZM7.49746 9.44719L7.61959 9.81344L8.00565 9.81637C8.05565 9.81681 8.07633 9.8805 8.03615 9.91025L7.72558 10.1396L7.84208 10.5077C7.85721 10.5553 7.8029 10.5948 7.76221 10.5657L7.44808 10.3412L7.13402 10.5657C7.09334 10.5947 7.03915 10.5553 7.05415 10.5077L7.17065 10.1396L6.86009 9.91025C6.8199 9.8805 6.84058 9.81681 6.89058 9.81637L7.27665 9.81344L7.39877 9.44719C7.41459 9.39981 7.48165 9.39981 7.49746 9.44719ZM8.98452 2.72294L9.10665 3.08919L9.49271 3.09213C9.54271 3.09256 9.5634 3.15631 9.52321 3.186L9.21265 3.41538L9.32915 3.78344C9.34427 3.83106 9.28996 3.87056 9.24927 3.84144L8.93521 3.61694L8.62115 3.84144C8.58046 3.8705 8.52627 3.83106 8.54127 3.78344L8.65777 3.41538L8.34721 3.186C8.30702 3.15625 8.32771 3.09256 8.37771 3.09213L8.76377 3.08919L8.8859 2.72294C8.90171 2.67556 8.96871 2.67556 8.98452 2.72294ZM8.98452 4.63887L9.10665 5.00512L9.49271 5.00806C9.54271 5.0085 9.5634 5.07225 9.52321 5.10194L9.21265 5.33131L9.32915 5.69937C9.34427 5.747 9.28996 5.7865 9.24927 5.75738L8.93521 5.53287L8.62115 5.75738C8.58046 5.78644 8.52627 5.74706 8.54127 5.69937L8.65777 5.33131L8.34721 5.10194C8.30702 5.07231 8.32771 5.0085 8.37771 5.00806L8.76377 5.00512L8.8859 4.63887C8.90171 4.59144 8.96871 4.59144 8.98452 4.63887ZM8.98452 6.55475L9.10665 6.921L9.49271 6.92394C9.54271 6.92438 9.5634 6.98806 9.52321 7.01781L9.21265 7.24719L9.32915 7.61525C9.34427 7.66288 9.28996 7.70237 9.24927 7.67325L8.93521 7.44875L8.62115 7.67325C8.58046 7.70231 8.52627 7.66288 8.54127 7.61525L8.65777 7.24719L8.34721 7.01781C8.30702 6.98806 8.32771 6.92438 8.37771 6.92394L8.76377 6.921L8.8859 6.55475C8.90171 6.50731 8.96871 6.50731 8.98452 6.55475ZM8.98452 8.47063L9.10665 8.83688L9.49271 8.83981C9.54271 8.84025 9.5634 8.90394 9.52321 8.93369L9.21265 9.16306L9.32915 9.53112C9.34427 9.57875 9.28996 9.61825 9.24927 9.58913L8.93521 9.36462L8.62115 9.58913C8.58046 9.61825 8.52627 9.57875 8.54127 9.53112L8.65777 9.16306L8.34721 8.93369C8.30702 8.90394 8.32771 8.84025 8.37771 8.83981L8.76377 8.83688L8.8859 8.47063C8.90171 8.42325 8.96871 8.42325 8.98452 8.47063ZM10.4716 1.78362L10.5938 2.14988L10.9798 2.15281C11.0298 2.15325 11.0505 2.217 11.0103 2.24669L10.6998 2.476L10.8163 2.84406C10.8314 2.89169 10.7771 2.93119 10.7364 2.90206L10.4223 2.67756L10.1083 2.90206C10.0676 2.93119 10.0134 2.89169 10.0284 2.84406L10.1449 2.476L9.83434 2.24669C9.79415 2.21694 9.81483 2.15319 9.86483 2.15281L10.2509 2.14988L10.373 1.78362C10.3887 1.73619 10.4558 1.73619 10.4716 1.78362ZM10.4716 3.6995L10.5938 4.06575L10.9798 4.06869C11.0298 4.06913 11.0505 4.13281 11.0103 4.16256L10.6998 4.39194L10.8163 4.76C10.8314 4.80762 10.7771 4.84713 10.7364 4.818L10.4223 4.5935L10.1083 4.818C10.0676 4.84706 10.0134 4.80762 10.0284 4.76L10.1449 4.39194L9.83434 4.16256C9.79415 4.13281 9.81483 4.06913 9.86483 4.06869L10.2509 4.06575L10.373 3.6995C10.3887 3.65212 10.4558 3.65212 10.4716 3.6995ZM10.4716 5.61544L10.5938 5.98169L10.9798 5.98463C11.0298 5.98506 11.0505 6.04875 11.0103 6.0785L10.6998 6.30788L10.8163 6.67594C10.8314 6.72356 10.7771 6.76306 10.7364 6.73394L10.4223 6.50944L10.1083 6.73394C10.0676 6.763 10.0134 6.72362 10.0284 6.67594L10.1449 6.30788L9.83434 6.0785C9.79415 6.04875 9.81483 5.98506 9.86483 5.98463L10.2509 5.98169L10.373 5.61544C10.3887 5.568 10.4558 5.568 10.4716 5.61544ZM10.4716 7.53131L10.5938 7.89756L10.9798 7.9005C11.0298 7.90094 11.0505 7.96469 11.0103 7.99437L10.6998 8.22375L10.8163 8.59181C10.8314 8.63944 10.7771 8.67894 10.7364 8.64981L10.4223 8.42531L10.1083 8.64981C10.0676 8.67887 10.0134 8.63944 10.0284 8.59181L10.1449 8.22375L9.83434 7.99437C9.79415 7.96475 9.81483 7.90094 9.86483 7.9005L10.2509 7.89756L10.373 7.53131C10.3887 7.48387 10.4558 7.48387 10.4716 7.53131ZM10.4716 9.44719L10.5938 9.81344L10.9798 9.81637C11.0298 9.81681 11.0505 9.8805 11.0103 9.91025L10.6998 10.1396L10.8163 10.5077C10.8314 10.5553 10.7771 10.5948 10.7364 10.5657L10.4223 10.3412L10.1083 10.5657C10.0676 10.5947 10.0134 10.5553 10.0284 10.5077L10.1449 10.1396L9.83434 9.91025C9.79415 9.8805 9.81483 9.81681 9.86483 9.81637L10.2509 9.81344L10.373 9.44719C10.3887 9.39981 10.4558 9.39981 10.4716 9.44719ZM11.9587 2.72294L12.0808 3.08919L12.4669 3.09213C12.5169 3.09256 12.5376 3.15631 12.4974 3.186L12.1868 3.41538L12.3033 3.78344C12.3185 3.83106 12.2641 3.87056 12.2235 3.84144L11.9094 3.61694L11.5953 3.84144C11.5546 3.8705 11.5005 3.83106 11.5155 3.78344L11.632 3.41538L11.3214 3.186C11.2812 3.15625 11.3019 3.09256 11.3519 3.09213L11.738 3.08919L11.8601 2.72294C11.8758 2.67556 11.9429 2.67556 11.9587 2.72294ZM11.9587 4.63887L12.0808 5.00512L12.4669 5.00806C12.5169 5.0085 12.5376 5.07225 12.4974 5.10194L12.1868 5.33131L12.3033 5.69937C12.3185 5.747 12.2641 5.7865 12.2235 5.75738L11.9094 5.53287L11.5953 5.75738C11.5546 5.78644 11.5005 5.74706 11.5155 5.69937L11.632 5.33131L11.3214 5.10194C11.2812 5.07231 11.3019 5.0085 11.3519 5.00806L11.738 5.00512L11.8601 4.63887C11.8758 4.59144 11.9429 4.59144 11.9587 4.63887ZM11.9587 6.55475L12.0808 6.921L12.4669 6.92394C12.5169 6.92438 12.5376 6.98806 12.4974 7.01781L12.1868 7.24719L12.3033 7.61525C12.3185 7.66288 12.2641 7.70237 12.2235 7.67325L11.9094 7.44875L11.5953 7.67325C11.5546 7.70231 11.5005 7.66288 11.5155 7.61525L11.632 7.24719L11.3214 7.01781C11.2812 6.98806 11.3019 6.92438 11.3519 6.92394L11.738 6.921L11.8601 6.55475C11.8758 6.50731 11.9429 6.50731 11.9587 6.55475ZM11.9587 8.47063L12.0808 8.83688L12.4669 8.83981C12.5169 8.84025 12.5376 8.90394 12.4974 8.93369L12.1868 9.16306L12.3033 9.53112C12.3185 9.57875 12.2641 9.61825 12.2235 9.58913L11.9094 9.36462L11.5953 9.58913C11.5546 9.61825 11.5005 9.57875 11.5155 9.53112L11.632 9.16306L11.3214 8.93369C11.2812 8.90394 11.3019 8.84025 11.3519 8.83981L11.738 8.83688L11.8601 8.47063C11.8758 8.42325 11.9429 8.42325 11.9587 8.47063ZM13.4458 1.78362L13.568 2.14988L13.954 2.15281C14.004 2.15325 14.0247 2.217 13.9845 2.24669L13.674 2.476L13.7905 2.84406C13.8056 2.89169 13.7513 2.93119 13.7106 2.90206L13.3965 2.67756L13.0825 2.90206C13.0418 2.93119 12.9876 2.89169 13.0026 2.84406L13.1191 2.476L12.8085 2.24669C12.7683 2.21694 12.789 2.15319 12.839 2.15281L13.2251 2.14988L13.3472 1.78362C13.363 1.73619 13.43 1.73619 13.4458 1.78362ZM13.4458 3.6995L13.568 4.06575L13.954 4.06869C14.004 4.06913 14.0247 4.13281 13.9845 4.16256L13.674 4.39194L13.7905 4.76C13.8056 4.80762 13.7513 4.84713 13.7106 4.818L13.3965 4.5935L13.0825 4.818C13.0418 4.84706 12.9876 4.80762 13.0026 4.76L13.1191 4.39194L12.8085 4.16256C12.7683 4.13281 12.789 4.06913 12.839 4.06869L13.2251 4.06575L13.3472 3.6995C13.363 3.65212 13.43 3.65212 13.4458 3.6995ZM13.4458 5.61544L13.568 5.98169L13.954 5.98463C14.004 5.98506 14.0247 6.04875 13.9845 6.0785L13.674 6.30788L13.7905 6.67594C13.8056 6.72356 13.7513 6.76306 13.7106 6.73394L13.3965 6.50944L13.0825 6.73394C13.0418 6.763 12.9876 6.72362 13.0026 6.67594L13.1191 6.30788L12.8085 6.0785C12.7683 6.04875 12.789 5.98506 12.839 5.98463L13.2251 5.98169L13.3472 5.61544C13.363 5.568 13.43 5.568 13.4458 5.61544ZM13.4458 7.53131L13.568 7.89756L13.954 7.9005C14.004 7.90094 14.0247 7.96469 13.9845 7.99437L13.674 8.22375L13.7905 8.59181C13.8056 8.63944 13.7513 8.67894 13.7106 8.64981L13.3965 8.42531L13.0825 8.64981C13.0418 8.67887 12.9876 8.63944 13.0026 8.59181L13.1191 8.22375L12.8085 7.99437C12.7683 7.96475 12.789 7.90094 12.839 7.9005L13.2251 7.89756L13.3472 7.53131C13.363 7.48387 13.43 7.48387 13.4458 7.53131ZM13.4458 9.44719L13.568 9.81344L13.954 9.81637C14.004 9.81681 14.0247 9.8805 13.9845 9.91025L13.674 10.1396L13.7905 10.5077C13.8056 10.5553 13.7513 10.5948 13.7106 10.5657L13.3965 10.3412L13.0825 10.5657C13.0418 10.5947 12.9876 10.5553 13.0026 10.5077L13.1191 10.1396L12.8085 9.91025C12.7683 9.8805 12.789 9.81681 12.839 9.81637L13.2251 9.81344L13.3472 9.44719C13.363 9.39981 13.43 9.39981 13.4458 9.44719Z" fill="#F5F5F5"/>
</svg>
