<svg width="20" height="20" viewBox="0 0 20 20" fill="none" xmlns="http://www.w3.org/2000/svg">
<path d="M8.12504 18.65C7.93337 18.65 7.74171 18.6166 7.55838 18.55C6.93338 18.3166 6.53337 17.7333 6.53337 17.0666V11.6916H4.58337C3.95004 11.6916 3.40003 11.3333 3.1417 10.7583C2.88336 10.1833 2.98336 9.53331 3.40003 9.05831L9.70837 1.89164C10.15 1.39164 10.8334 1.21664 11.4584 1.45831C12.0834 1.69164 12.4834 2.27497 12.4834 2.94164V8.31664H14.4334C15.0667 8.31664 15.6167 8.67497 15.875 9.24997C16.1334 9.82497 16.0334 10.475 15.6167 10.95L9.30836 18.1166C9.00003 18.4666 8.56671 18.65 8.12504 18.65ZM10.8834 2.59997C10.8084 2.59997 10.7167 2.62497 10.6417 2.71664L4.33336 9.89164C4.20002 10.0416 4.25004 10.1916 4.27504 10.25C4.30004 10.3083 4.38337 10.45 4.58337 10.45H7.15837C7.50004 10.45 7.78337 10.7333 7.78337 11.075V17.075C7.78337 17.2833 7.93338 17.3666 8.00004 17.3916C8.06671 17.4166 8.23335 17.4583 8.36669 17.3L14.675 10.125C14.8084 9.97497 14.7584 9.82497 14.7334 9.76664C14.7084 9.70831 14.625 9.56664 14.425 9.56664H11.85C11.5084 9.56664 11.225 9.28331 11.225 8.94164V2.94164C11.225 2.73331 11.075 2.64997 11.0084 2.62497C10.9834 2.60831 10.9334 2.59997 10.8834 2.59997Z" fill="#292D32"/>
</svg>
