<svg width="20" height="20" viewBox="0 0 20 20" fill="none" xmlns="http://www.w3.org/2000/svg">
<path d="M5.625 5.625C3.21563 5.625 1.25 7.59063 1.25 10C1.25 12.4125 3.2125 14.375 5.625 14.375C7.45625 14.375 8.57438 13.3688 9.43375 12.1287C9.1775 11.7162 8.9625 11.3088 8.75 10.9181C7.98313 12.185 7.12375 13.125 5.625 13.125C3.90125 13.125 2.5 11.7238 2.5 10C2.5 8.26688 3.89188 6.875 5.625 6.875C6.63562 6.875 7.27812 7.23625 7.87125 7.85187C8.46438 8.46687 8.965 9.35562 9.4725 10.2931C9.98063 11.2306 10.4956 12.2169 11.25 13.0075C12.0044 13.7981 13.0444 14.375 14.375 14.375C16.7844 14.375 18.75 12.4094 18.75 10C18.75 7.5875 16.7875 5.625 14.375 5.625C12.5538 5.625 11.4281 6.59938 10.5662 7.8125C10.8225 8.21792 11.0569 8.615 11.2694 9.00375C12.0312 7.77313 12.8813 6.875 14.375 6.875C16.0988 6.875 17.5 8.27625 17.5 10C17.5 11.7331 16.1081 13.125 14.375 13.125C13.3813 13.125 12.7563 12.7638 12.1681 12.1481C11.5794 11.5331 11.0769 10.6444 10.5662 9.70687C10.0562 8.76938 9.53125 7.78313 8.76937 6.99188C8.0075 6.20125 6.9675 5.625 5.625 5.625Z" fill="#202020"/>
</svg>
