<svg width="20" height="20" viewBox="0 0 20 20" fill="none" xmlns="http://www.w3.org/2000/svg">
<path d="M14.0002 2.50007H6.00016C4.92891 2.50007 4.20016 2.50007 3.63766 2.54757C3.09016 2.59132 2.80891 2.67257 2.61391 2.77257C2.14352 3.01225 1.76109 3.39468 1.52141 3.86507C1.42141 4.06007 1.34016 4.34007 1.29641 4.88882C1.25016 5.45007 1.24891 6.17507 1.24891 7.25007V10.2501C1.24891 11.3213 1.25016 12.0501 1.29641 12.6126C1.34141 13.1601 1.42266 13.4413 1.52141 13.6363C1.76141 14.1063 2.14391 14.4888 2.61391 14.7288C2.80891 14.8288 3.09016 14.9101 3.63766 14.9538C4.08891 14.9913 4.80516 14.9988 5.62516 15.0001C5.79092 15.0001 5.94989 15.0659 6.0671 15.1831C6.18431 15.3003 6.25016 15.4593 6.25016 15.6251C6.25016 15.7908 6.18431 15.9498 6.0671 16.067C5.94989 16.1842 5.79092 16.2501 5.62516 16.2501C3.77516 16.2463 2.77516 16.2101 2.05016 15.8413C1.34523 15.4819 0.772062 14.9087 0.412656 14.2038C0.00390629 13.4013 0.00390625 12.3538 0.00390625 10.2538V7.25382C0.00390625 5.15382 0.00390629 4.10382 0.412656 3.30382C0.773454 2.59991 1.34625 2.02712 2.05016 1.66632C2.85266 1.25757 3.90016 1.25757 6.00016 1.25757H14.0002C16.1002 1.25757 17.1502 1.25757 17.9502 1.66632C18.6541 2.02712 19.2269 2.59991 19.5877 3.30382C19.9964 4.10632 19.9964 5.15382 19.9964 7.25382V10.2538C19.9964 12.3538 19.9964 13.4038 19.5877 14.2038C19.2283 14.9087 18.6551 15.4819 17.9502 15.8413C17.7339 15.9513 17.4977 15.7763 17.4977 15.5338V15.0713C17.4977 14.8201 17.6377 14.5926 17.8314 14.4338C18.0977 14.2163 18.3164 13.9451 18.4752 13.6338C18.5752 13.4401 18.6564 13.1588 18.7002 12.6113C18.7402 12.1263 18.7464 11.5188 18.7464 10.6738V7.25257C18.7464 6.18132 18.7464 5.45257 18.7002 4.89007C18.6552 4.34257 18.5739 4.06132 18.4752 3.86507C18.2353 3.39515 17.8529 3.01317 17.3827 2.77382C17.1877 2.67382 16.9064 2.59257 16.3589 2.54882C15.7964 2.50257 15.0714 2.50132 13.9964 2.50132L14.0002 2.50007Z" fill="#202020"/>
<path fill-rule="evenodd" clip-rule="evenodd" d="M15 19.375V15.3C16.5125 14.2912 17.5 12.575 17.5 10.625C17.5 7.5125 14.9875 5 11.875 5C8.7625 5 6.25 7.5125 6.25 10.625C6.25 12.575 7.2425 14.3 8.75 15.3V19.375C8.75002 19.4957 8.78501 19.6139 8.85074 19.7152C8.91648 19.8164 9.01014 19.8965 9.1204 19.9457C9.23067 19.9949 9.35282 20.0111 9.47209 19.9923C9.59136 19.9736 9.70265 19.9207 9.7925 19.84L11.88 17.965L13.9675 19.84C14.0573 19.9207 14.1686 19.9736 14.2879 19.9923C14.4072 20.0111 14.5293 19.9949 14.6396 19.9457C14.7499 19.8965 14.8435 19.8164 14.9093 19.7152C14.975 19.6139 15.01 19.4957 15.01 19.375H15ZM14.305 14.2625C14.1343 14.3767 13.9943 14.5312 13.8975 14.7124C13.8007 14.8936 13.75 15.0958 13.75 15.3013V17.9762L12.71 17.0425C12.4797 16.8365 12.1815 16.7226 11.8725 16.7226C11.5635 16.7226 11.2653 16.8365 11.035 17.0425L9.995 17.9762V15.3013C9.99496 15.0958 9.9443 14.8936 9.8475 14.7124C9.7507 14.5312 9.61074 14.3767 9.44 14.2625C8.84077 13.8634 8.34927 13.3227 8.00911 12.6881C7.66896 12.0536 7.49065 11.345 7.49 10.625C7.49 8.2125 9.4525 6.25 11.865 6.25C14.2775 6.25 16.24 8.2125 16.24 10.625C16.24 12.1375 15.47 13.475 14.29 14.2625H14.305Z" fill="#202020"/>
</svg>
