<svg width="120" height="120" viewBox="0 0 120 120" fill="none" xmlns="http://www.w3.org/2000/svg">
<g clip-path="url(#clip0_4134_2998)">
<path d="M60.0001 120C93.1373 120 120 93.1373 120 60.0001C120 26.863 93.1373 0 60.0001 0C26.863 0 0 26.863 0 60.0001C0 93.1373 26.863 120 60.0001 120Z" fill="#76A441"/>
<path d="M120 60.0001C120 93.0002 93 120 59.9999 120C40.875 120 24 111.375 13.1248 97.5003C23.2498 105.75 36.3749 110.625 50.6248 110.625C83.6249 110.625 110.625 83.6253 110.625 50.6252C110.625 36.3753 105.75 23.2502 97.4998 13.1252C111.375 23.9999 120 40.8749 120 60.0001Z" fill="#699438"/>
<path d="M92.6251 42.75L53.6251 85.5002C51 88.5003 46.5001 88.5003 43.875 85.5002L27.375 67.1252C25.125 64.5001 25.1251 60.3752 27.7499 57.7501C30.375 55.5002 34.4999 55.5002 37.125 58.125L48.7501 71.2501L82.875 34.1251C85.5001 31.4999 89.625 31.125 92.2501 33.7501C94.875 36 94.875 40.5001 92.6251 42.75Z" fill="white"/>
</g>
<defs>
<clipPath id="clip0_4134_2998">
<rect width="120" height="120" fill="white"/>
</clipPath>
</defs>
</svg>
