<svg width="16" height="16" viewBox="0 0 16 16" fill="none" xmlns="http://www.w3.org/2000/svg">
<g clip-path="url(#clip0_4134_2615)">
<path d="M5.88423 7.76454C5.88423 7.34261 5.75911 6.93015 5.5247 6.57932C5.29028 6.2285 4.9571 5.95506 4.56729 5.7936C4.17747 5.63213 3.74853 5.58988 3.3347 5.6722C2.92088 5.75451 2.54075 5.95769 2.2424 6.25605C1.94405 6.5544 1.74087 6.93452 1.65855 7.34835C1.57624 7.76217 1.61848 8.19112 1.77995 8.58093C1.94142 8.97075 2.21485 9.30393 2.56568 9.53834C2.9165 9.77276 3.32896 9.89787 3.75089 9.89787C4.31633 9.8967 4.85827 9.67156 5.25809 9.27174C5.65791 8.87191 5.88305 8.32997 5.88423 7.76454ZM2.56423 7.76454C2.56423 7.52984 2.63382 7.30041 2.76422 7.10526C2.89461 6.91012 3.07994 6.75802 3.29678 6.6682C3.51361 6.57839 3.75221 6.55489 3.9824 6.60067C4.21259 6.64646 4.42404 6.75948 4.58999 6.92544C4.75595 7.0914 4.86897 7.30284 4.91476 7.53303C4.96055 7.76322 4.93705 8.00182 4.84723 8.21866C4.75742 8.43549 4.60532 8.62082 4.41017 8.75122C4.21502 8.88161 3.98559 8.95121 3.75089 8.95121C3.59506 8.95121 3.44075 8.92051 3.29678 8.86088C3.1528 8.80124 3.02199 8.71383 2.91179 8.60364C2.8016 8.49345 2.71419 8.36263 2.65456 8.21866C2.59492 8.07468 2.56423 7.92037 2.56423 7.76454ZM8.88867 9.68454C8.84043 9.58832 8.76097 9.5113 8.66329 9.46609C8.5656 9.42088 8.45547 9.41015 8.35089 9.43565L4.88867 10.2979C4.69969 10.345 4.50566 10.3689 4.31089 10.369H2.78645C2.28313 10.369 1.80042 10.5689 1.44452 10.9248C1.08862 11.2807 0.888672 11.7634 0.888672 12.2668V14.6357C0.888672 14.7618 0.938775 14.8827 1.02796 14.9719C1.11714 15.0611 1.2381 15.1112 1.36423 15.1112H6.10201C6.22813 15.1112 6.34909 15.0611 6.43827 14.9719C6.52746 14.8827 6.57756 14.7618 6.57756 14.6357V13.249C6.57687 13.1709 6.5956 13.0939 6.63206 13.0248C6.66853 12.9558 6.72158 12.8969 6.78645 12.8534L8.51089 11.7023C8.82076 11.4787 9.0328 11.1445 9.10312 10.7689C9.17344 10.3933 9.09666 10.0051 8.88867 9.68454ZM7.99978 10.9112L6.27534 12.0623C6.07999 12.1915 5.9197 12.3672 5.8088 12.5735C5.69789 12.7798 5.63982 13.0103 5.63978 13.2445V14.1601H1.83534V12.2668C1.83651 12.0161 1.93662 11.7759 2.1139 11.5987C2.29118 11.4214 2.53129 11.3213 2.78201 11.3201H4.32867C4.5998 11.3203 4.86993 11.2875 5.13312 11.2223L8.19089 10.4579C8.20425 10.5444 8.19348 10.6329 8.15976 10.7137C8.12604 10.7944 8.07068 10.8643 7.99978 10.9157V10.9112ZM7.05312 4.20898H10.8442V5.15565H7.05312V4.20898ZM7.05312 6.57787H12.742V7.52454H7.05312V6.57787Z" fill="#76A441"/>
<path d="M15.1109 0.888916H0.888672V1.83558H1.36423V5.15558H2.31089V1.83558H13.6887V11.7911C13.6887 11.9173 13.6386 12.0382 13.5494 12.1274C13.4602 12.2166 13.3392 12.2667 13.2131 12.2667H10.222V13.2134H13.2353C13.4221 13.2134 13.607 13.1766 13.7796 13.1051C13.9522 13.0336 14.1089 12.9289 14.241 12.7968C14.3731 12.6647 14.4778 12.508 14.5493 12.3354C14.6208 12.1628 14.6576 11.9779 14.6576 11.7911V1.83558H15.1109V0.888916Z" fill="#76A441"/>
</g>
<defs>
<clipPath id="clip0_4134_2615">
<rect width="16" height="16" fill="white"/>
</clipPath>
</defs>
</svg>
