<svg width="16" height="16" viewBox="0 0 16 16" fill="none" xmlns="http://www.w3.org/2000/svg">
<path d="M10.1602 15.1666H5.84021C4.58021 15.1666 3.66021 14.6399 3.30687 13.7333C2.94021 12.7866 3.28021 11.6133 4.16021 10.8199L7.25354 7.99992L4.16021 5.17992C3.28021 4.38659 2.94021 3.21325 3.30687 2.26659C3.66021 1.35325 4.58021 0.833252 5.84021 0.833252H10.1602C11.4202 0.833252 12.3402 1.35992 12.6935 2.26659C13.0602 3.21325 12.7202 4.38659 11.8402 5.17992L8.74687 7.99992L11.8469 10.8199C12.7202 11.6133 13.0669 12.7866 12.7002 13.7333C12.3402 14.6399 11.4202 15.1666 10.1602 15.1666ZM8.00021 8.67325L4.83354 11.5533C4.27354 12.0666 4.02687 12.8133 4.24021 13.3666C4.44021 13.8799 5.00687 14.1666 5.84021 14.1666H10.1602C10.9935 14.1666 11.5602 13.8866 11.7602 13.3666C11.9735 12.8133 11.7335 12.0666 11.1669 11.5533L8.00021 8.67325ZM5.84021 1.83325C5.00687 1.83325 4.44021 2.11325 4.24021 2.63325C4.02687 3.18659 4.26687 3.93325 4.83354 4.44659L8.00021 7.32659L11.1669 4.44659C11.7269 3.93325 11.9735 3.18659 11.7602 2.63325C11.5602 2.11992 10.9935 1.83325 10.1602 1.83325H5.84021Z" fill="#76A441"/>
</svg>
