<svg width="18" height="19" viewBox="0 0 18 19" fill="none" xmlns="http://www.w3.org/2000/svg">
<path d="M8.26505 11.119L11.1662 9.25504C11.3455 9.13517 11.4351 8.97186 11.4351 8.76511C11.4351 8.55848 11.3457 8.39404 11.167 8.27179L8.26505 6.40767C8.07218 6.28167 7.87274 6.27267 7.66674 6.38067C7.46074 6.48879 7.35774 6.66029 7.35774 6.89517V10.6315C7.35774 10.8676 7.46074 11.0399 7.66674 11.1484C7.87274 11.257 8.07218 11.2472 8.26505 11.119ZM3.30643 14.2538C2.95093 14.2538 2.64868 14.1293 2.39968 13.8803C2.1508 13.6314 2.02637 13.3298 2.02637 12.9754V4.53961C2.02637 4.18523 2.1508 3.88361 2.39968 3.63473C2.64868 3.38573 2.95037 3.26123 3.30474 3.26123H14.695C15.0494 3.26123 15.3511 3.38573 15.6001 3.63473C15.8489 3.88361 15.9734 4.18523 15.9734 4.53961V12.9754C15.9734 13.3298 15.8489 13.6314 15.6001 13.8803C15.3511 14.1293 15.0488 14.2538 14.6933 14.2538H11.5339V15.0968C11.5339 15.276 11.4717 15.4279 11.3474 15.5522C11.2229 15.6765 11.0723 15.7386 10.8957 15.7386H7.10762C6.92824 15.7386 6.77643 15.6765 6.65218 15.5522C6.52793 15.4279 6.46581 15.276 6.46581 15.0968V14.2538H3.30643ZM3.30643 13.2045H14.6933C14.7511 13.2045 14.804 13.1805 14.8521 13.1324C14.9001 13.0842 14.9241 13.0314 14.9241 12.9737V4.54129C14.9241 4.48354 14.9001 4.43067 14.8521 4.38267C14.804 4.33454 14.7511 4.31048 14.6933 4.31048H3.30643C3.24868 4.31048 3.19574 4.33454 3.14762 4.38267C3.09962 4.43067 3.07562 4.48354 3.07562 4.54129V12.9737C3.07562 13.0314 3.09962 13.0842 3.14762 13.1324C3.19574 13.1805 3.24868 13.2045 3.30643 13.2045Z" fill="#425A8B"/>
</svg>
