<svg width="20" height="20" viewBox="0 0 20 20" fill="none" xmlns="http://www.w3.org/2000/svg">
<path d="M12.4998 18.9584H7.49984C2.97484 18.9584 1.0415 17.0251 1.0415 12.5001V7.50008C1.0415 2.97508 2.97484 1.04175 7.49984 1.04175H12.4998C17.0248 1.04175 18.9582 2.97508 18.9582 7.50008V12.5001C18.9582 17.0251 17.0248 18.9584 12.4998 18.9584ZM7.49984 2.29175C3.65817 2.29175 2.2915 3.65841 2.2915 7.50008V12.5001C2.2915 16.3417 3.65817 17.7084 7.49984 17.7084H12.4998C16.3415 17.7084 17.7082 16.3417 17.7082 12.5001V7.50008C17.7082 3.65841 16.3415 2.29175 12.4998 2.29175H7.49984Z" fill="#202020"/>
<path d="M17.9001 6.55005H2.1001C1.75843 6.55005 1.4751 6.26672 1.4751 5.92505C1.4751 5.58338 1.7501 5.30005 2.1001 5.30005H17.9001C18.2418 5.30005 18.5251 5.58338 18.5251 5.92505C18.5251 6.26672 18.2501 6.55005 17.9001 6.55005Z" fill="#202020"/>
<path d="M7.1001 6.4333C6.75843 6.4333 6.4751 6.14997 6.4751 5.8083V1.7583C6.4751 1.41663 6.75843 1.1333 7.1001 1.1333C7.44176 1.1333 7.7251 1.41663 7.7251 1.7583V5.8083C7.7251 6.14997 7.44176 6.4333 7.1001 6.4333Z" fill="#202020"/>
<path d="M12.8999 6.0583C12.5582 6.0583 12.2749 5.77497 12.2749 5.4333V1.7583C12.2749 1.41663 12.5582 1.1333 12.8999 1.1333C13.2416 1.1333 13.5249 1.41663 13.5249 1.7583V5.4333C13.5249 5.7833 13.2499 6.0583 12.8999 6.0583Z" fill="#202020"/>
<path d="M9.24167 15.1C8.94167 15.1 8.65833 15.025 8.4 14.8834C7.83333 14.55 7.5 13.8834 7.5 13.0417V11.0417C7.5 10.2 7.83333 9.52505 8.40833 9.19171C8.98333 8.85838 9.73333 8.90838 10.4583 9.33338L12.1917 10.3334C12.9167 10.75 13.3417 11.375 13.3417 12.0417C13.3417 12.7084 12.9167 13.3334 12.1833 13.75L10.45 14.75C10.05 14.9834 9.63333 15.1 9.24167 15.1ZM9.25 10.225C9.16667 10.225 9.09167 10.2417 9.03333 10.275C8.85833 10.375 8.75 10.6584 8.75 11.0417V13.0417C8.75 13.4167 8.85833 13.7 9.03333 13.8084C9.20833 13.9084 9.50833 13.8584 9.83333 13.6667L11.5667 12.6667C11.8917 12.475 12.0917 12.2417 12.0917 12.0417C12.0917 11.8417 11.9 11.6084 11.5667 11.4167L9.83333 10.4167C9.61667 10.2917 9.40833 10.225 9.25 10.225Z" fill="#202020"/>
</svg>
