<svg width="17" height="14" viewBox="0 0 17 14" fill="none" xmlns="http://www.w3.org/2000/svg">
<g clip-path="url(#clip0_87_42)">
<path d="M15.1021 5.96465L3.42697 5.96465L7.00041 1.67258C7.1675 1.47158 7.24789 1.21238 7.22389 0.952079C7.19989 0.691779 7.07347 0.451679 6.87248 0.284579C6.67138 0.117479 6.41218 0.0370791 6.15188 0.0610791C5.89158 0.0850791 5.65148 0.211479 5.48438 0.412579L0.562376 6.31904C0.529176 6.36602 0.499576 6.41537 0.473776 6.4667C0.473776 6.51592 0.473775 6.54545 0.404775 6.59467C0.360175 6.70754 0.336874 6.82769 0.335874 6.94906C0.336874 7.07043 0.360175 7.19058 0.404775 7.30345C0.404775 7.35267 0.404775 7.3822 0.473775 7.43142C0.499575 7.48275 0.529176 7.53211 0.562376 7.57909L5.48437 13.4856C5.57697 13.5967 5.69287 13.6861 5.82387 13.7473C5.95487 13.8086 6.09777 13.8402 6.24237 13.84C6.47237 13.8404 6.69527 13.7603 6.87247 13.6135C6.97207 13.5309 7.0545 13.4294 7.1149 13.3149C7.17529 13.2003 7.2125 13.075 7.22439 12.9461C7.23627 12.8171 7.22261 12.6871 7.18417 12.5635C7.14574 12.4398 7.08329 12.325 7.0004 12.2255L3.42697 7.93348L15.1021 7.93347C15.3632 7.93347 15.6136 7.82976 15.7982 7.64515C15.9828 7.46053 16.0865 7.21014 16.0865 6.94906C16.0865 6.68798 15.9828 6.43759 15.7982 6.25297C15.6136 6.06836 15.3632 5.96465 15.1021 5.96465Z" fill="#425A8B"/>
</g>
<defs>
<clipPath id="clip0_87_42">
<rect width="17" height="14" fill="white" transform="translate(17 14) rotate(-180)"/>
</clipPath>
</defs>
</svg>
