<svg width="20" height="21" viewBox="0 0 20 21" fill="none" xmlns="http://www.w3.org/2000/svg">
<g clip-path="url(#clip0_4204_7068)">
<path d="M11.8339 18.6505C11.4945 19.3801 11.2701 20.1719 11.1841 21.0023L18.3683 19.522C18.7078 18.7925 18.932 18.0005 19.0181 17.1702L11.8339 18.6505Z" fill="#425A8B"/>
<path d="M18.3745 15.0848C18.714 14.3553 18.9384 13.5633 19.0244 12.733L13.4281 13.8867V11.6688L18.3744 10.65C18.7138 9.9205 18.9383 9.12852 19.0242 8.29815L13.428 9.45086V1.47493C12.5704 1.94162 11.8089 2.56284 11.1898 3.2956V9.91214L8.95169 10.3733V0.390137C8.09418 0.856665 7.33262 1.47805 6.71356 2.21081V10.8342L1.70572 11.8657C1.36623 12.5952 1.14166 13.3871 1.05552 14.2175L6.71356 13.052V15.845L0.649863 17.094C0.310377 17.8234 0.0859714 18.6154 0 19.4458L6.34699 18.1384C6.86367 18.0342 7.30774 17.7381 7.59645 17.3307L8.76045 15.6579V15.6576C8.88129 15.4846 8.95169 15.2759 8.95169 15.0512V12.5909L11.1898 12.1298V16.5654L18.3744 15.0845L18.3745 15.0848Z" fill="#425A8B"/>
</g>
<defs>
<clipPath id="clip0_4204_7068">
<rect width="19.0244" height="20.6098" fill="white" transform="translate(0 0.390137)"/>
</clipPath>
</defs>
</svg>
