<svg width="20" height="20" viewBox="0 0 20 20" fill="none" xmlns="http://www.w3.org/2000/svg">
<path opacity="0.4" d="M10 4.41674V17.7751C9.85834 17.7751 9.70834 17.7501 9.59167 17.6834L9.55834 17.6667C7.95834 16.7917 5.16667 15.8751 3.35834 15.6334L3.11667 15.6001C2.31667 15.5001 1.66667 14.7501 1.66667 13.9501V3.88341C1.66667 2.89174 2.475 2.14174 3.46667 2.22508C5.21667 2.36674 7.86667 3.25008 9.35001 4.17508L9.55834 4.30008C9.68334 4.37508 9.84167 4.41674 10 4.41674Z" fill="#425A8B"/>
<path d="M18.3333 3.89177V13.9501C18.3333 14.7501 17.6833 15.5001 16.8833 15.6001L16.6083 15.6334C14.7917 15.8751 11.9917 16.8001 10.3917 17.6834C10.2833 17.7501 10.15 17.7751 10 17.7751V4.41677C10.1583 4.41677 10.3167 4.37511 10.4417 4.30011L10.5833 4.20844C12.0667 3.27511 14.725 2.38344 16.475 2.23344H16.525C17.5167 2.15011 18.3333 2.89177 18.3333 3.89177Z" fill="#425A8B"/>
<path d="M6.45833 7.7002H4.58333C4.24166 7.7002 3.95833 7.41686 3.95833 7.0752C3.95833 6.73353 4.24166 6.4502 4.58333 6.4502H6.45833C6.79999 6.4502 7.08333 6.73353 7.08333 7.0752C7.08333 7.41686 6.79999 7.7002 6.45833 7.7002Z" fill="#425A8B"/>
<path d="M7.08333 10.2002H4.58333C4.24166 10.2002 3.95833 9.91686 3.95833 9.5752C3.95833 9.23353 4.24166 8.9502 4.58333 8.9502H7.08333C7.425 8.9502 7.70833 9.23353 7.70833 9.5752C7.70833 9.91686 7.425 10.2002 7.08333 10.2002Z" fill="#425A8B"/>
</svg>
