<svg width="20" height="20" viewBox="0 0 20 20" fill="none" xmlns="http://www.w3.org/2000/svg">
<path opacity="0.4" d="M17.5 5.83317V14.1665C17.5 16.6665 16.25 18.3332 13.3333 18.3332H6.66667C3.75 18.3332 2.5 16.6665 2.5 14.1665V5.83317C2.5 3.33317 3.75 1.6665 6.66667 1.6665H13.3333C16.25 1.6665 17.5 3.33317 17.5 5.83317Z" fill="#425A8B"/>
<path d="M15.4166 7.70833H13.7499C12.4833 7.70833 11.4583 6.68333 11.4583 5.41667V3.75C11.4583 3.40833 11.7416 3.125 12.0833 3.125C12.4249 3.125 12.7083 3.40833 12.7083 3.75V5.41667C12.7083 5.99167 13.1749 6.45833 13.7499 6.45833H15.4166C15.7583 6.45833 16.0416 6.74167 16.0416 7.08333C16.0416 7.425 15.7583 7.70833 15.4166 7.70833Z" fill="#425A8B"/>
<path d="M10.0001 11.4585H6.66675C6.32508 11.4585 6.04175 11.1752 6.04175 10.8335C6.04175 10.4918 6.32508 10.2085 6.66675 10.2085H10.0001C10.3417 10.2085 10.6251 10.4918 10.6251 10.8335C10.6251 11.1752 10.3417 11.4585 10.0001 11.4585Z" fill="#425A8B"/>
<path d="M13.3334 14.7915H6.66675C6.32508 14.7915 6.04175 14.5082 6.04175 14.1665C6.04175 13.8248 6.32508 13.5415 6.66675 13.5415H13.3334C13.6751 13.5415 13.9584 13.8248 13.9584 14.1665C13.9584 14.5082 13.6751 14.7915 13.3334 14.7915Z" fill="#425A8B"/>
</svg>
