<svg width="11" height="11" viewBox="0 0 11 11" fill="none" xmlns="http://www.w3.org/2000/svg">
<path d="M5.49997 7.58678C5.42789 7.58678 5.3607 7.57396 5.29841 7.54834C5.23612 7.52261 5.1783 7.48214 5.12497 7.42693L3.24466 5.54646C3.16007 5.46396 3.11757 5.36412 3.11716 5.24693C3.11674 5.12975 3.15924 5.02688 3.24466 4.93834C3.33112 4.85178 3.43273 4.80824 3.5495 4.80771C3.66638 4.80709 3.76804 4.85006 3.8545 4.93662L5.06435 6.14334V1.37459C5.06435 1.25521 5.10659 1.15277 5.19106 1.06725C5.27565 0.981725 5.37862 0.938965 5.49997 0.938965C5.62132 0.938965 5.72476 0.981725 5.81028 1.06725C5.89591 1.15277 5.93872 1.25521 5.93872 1.37459V6.14334L7.14544 4.93662C7.22992 4.85204 7.33106 4.80954 7.44888 4.80912C7.56669 4.8087 7.66987 4.85178 7.75841 4.93834C7.84174 5.02688 7.88419 5.12876 7.88575 5.24396C7.88731 5.35917 7.84487 5.46001 7.75841 5.54646L5.87794 7.42693C5.82263 7.48214 5.76382 7.52261 5.70153 7.54834C5.63924 7.57396 5.57205 7.58678 5.49997 7.58678ZM2.00544 10.0615C1.70856 10.0615 1.45653 9.95792 1.24935 9.75084C1.04226 9.54365 0.938721 9.29162 0.938721 8.99475V7.76881C0.938721 7.64745 0.981481 7.54402 1.067 7.4585C1.15252 7.37297 1.25596 7.33021 1.37731 7.33021C1.49679 7.33021 1.59929 7.37297 1.68481 7.4585C1.77034 7.54402 1.8131 7.64745 1.8131 7.76881V8.99475C1.8131 9.04287 1.8331 9.08699 1.8731 9.12709C1.9132 9.16709 1.95731 9.18709 2.00544 9.18709H8.9945C9.04263 9.18709 9.08674 9.16709 9.12685 9.12709C9.16685 9.08699 9.18685 9.04287 9.18685 8.99475V7.76881C9.18685 7.64745 9.22961 7.54402 9.31513 7.4585C9.40065 7.37297 9.50414 7.33021 9.6256 7.33021C9.74497 7.33021 9.84742 7.37297 9.93294 7.4585C10.0185 7.54402 10.0612 7.64745 10.0612 7.76881V8.99475C10.0612 9.29162 9.95768 9.54365 9.7506 9.75084C9.54341 9.95792 9.29138 10.0615 8.9945 10.0615H2.00544Z" fill="#425A8B"/>
</svg>
