<svg width="21" height="20" viewBox="0 0 21 20" fill="none" xmlns="http://www.w3.org/2000/svg">
<path d="M4.6794 16.2666C4.17107 16.2666 3.69607 16.0916 3.3544 15.7666C2.92107 15.3583 2.71273 14.7416 2.78773 14.075L3.09607 11.375C3.1544 10.8666 3.46273 10.1916 3.82107 9.82496L10.6627 2.58329C12.3711 0.774959 14.1544 0.72496 15.9627 2.43329C17.7711 4.14163 17.8211 5.92496 16.1127 7.73329L9.27107 14.975C8.92107 15.35 8.27107 15.7 7.76273 15.7833L5.0794 16.2416C4.93773 16.25 4.81273 16.2666 4.6794 16.2666ZM13.3377 2.42496C12.6961 2.42496 12.1377 2.82496 11.5711 3.42496L4.7294 10.675C4.56273 10.85 4.37107 11.2666 4.33773 11.5083L4.0294 14.2083C3.99607 14.4833 4.06273 14.7083 4.21273 14.85C4.36273 14.9916 4.58773 15.0416 4.86273 15L7.54607 14.5416C7.78773 14.5 8.18773 14.2833 8.3544 14.1083L15.1961 6.86663C16.2294 5.76663 16.6044 4.74996 15.0961 3.33329C14.4294 2.69163 13.8544 2.42496 13.3377 2.42496Z" fill="#425A8B"/>
<path d="M14.5127 9.12504C14.496 9.12504 14.471 9.12504 14.4544 9.12504C11.8544 8.8667 9.7627 6.8917 9.3627 4.30837C9.3127 3.9667 9.54603 3.65004 9.8877 3.5917C10.2294 3.5417 10.546 3.77504 10.6044 4.1167C10.921 6.13337 12.5544 7.68337 14.5877 7.88337C14.9294 7.9167 15.1794 8.22504 15.146 8.5667C15.1044 8.88337 14.8294 9.12504 14.5127 9.12504Z" fill="#425A8B"/>
<path d="M17.5627 18.9585H2.56274C2.22108 18.9585 1.93774 18.6752 1.93774 18.3335C1.93774 17.9918 2.22108 17.7085 2.56274 17.7085H17.5627C17.9044 17.7085 18.1877 17.9918 18.1877 18.3335C18.1877 18.6752 17.9044 18.9585 17.5627 18.9585Z" fill="#425A8B"/>
</svg>
