<svg width="20" height="20" viewBox="0 0 20 20" fill="none" xmlns="http://www.w3.org/2000/svg">
<path d="M12.6995 18.5581H12.5911C8.89115 18.5581 7.10782 17.0997 6.79948 13.8331C6.76615 13.4914 7.01615 13.1831 7.36615 13.1497C7.70782 13.1164 8.01615 13.3747 8.04948 13.7164C8.29115 16.3331 9.52448 17.3081 12.5995 17.3081H12.7078C16.0995 17.3081 17.2995 16.1081 17.2995 12.7164V7.28307C17.2995 3.89141 16.0995 2.69141 12.7078 2.69141H12.5995C9.50782 2.69141 8.27448 3.68307 8.04948 6.34974C8.00782 6.69141 7.72448 6.94974 7.36615 6.91641C7.28402 6.90999 7.20396 6.88742 7.13057 6.84999C7.05718 6.81257 6.99191 6.76102 6.93849 6.69831C6.88506 6.63559 6.84455 6.56295 6.81927 6.48455C6.79398 6.40614 6.78443 6.32351 6.79115 6.24141C7.07448 2.92474 8.86615 1.44141 12.5911 1.44141H12.6995C16.7912 1.44141 18.5412 3.19141 18.5412 7.28307V12.7164C18.5412 16.8081 16.7912 18.5581 12.6995 18.5581Z" fill="#E10D0D"/>
<path d="M12.3993 10.625H1.66602C1.32435 10.625 1.04102 10.3417 1.04102 10C1.04102 9.65833 1.32435 9.375 1.66602 9.375H12.3993C12.5651 9.375 12.7241 9.44085 12.8413 9.55806C12.9585 9.67527 13.0243 9.83424 13.0243 10C13.0243 10.1658 12.9585 10.3247 12.8413 10.4419C12.7241 10.5592 12.5651 10.625 12.3993 10.625Z" fill="#E10D0D"/>
<path d="M10.5411 13.4172C10.3827 13.4172 10.2244 13.3589 10.0994 13.2339C9.98315 13.1162 9.91797 12.9575 9.91797 12.7922C9.91797 12.6268 9.98315 12.4681 10.0994 12.3505L12.4494 10.0005L10.0994 7.65052C9.98315 7.53291 9.91797 7.37421 9.91797 7.20885C9.91797 7.0435 9.98315 6.8848 10.0994 6.76719C10.3411 6.52552 10.7411 6.52552 10.9827 6.76719L13.7744 9.55885C14.0161 9.80052 14.0161 10.2005 13.7744 10.4422L10.9827 13.2339C10.8577 13.3589 10.6994 13.4172 10.5411 13.4172Z" fill="#E10D0D"/>
</svg>
