<svg width="20" height="20" viewBox="0 0 20 20" fill="none" xmlns="http://www.w3.org/2000/svg">
<g clip-path="url(#clip0_4183_5015)">
<path d="M17.4997 9.58268C17.4997 11.1485 17.0354 12.6791 16.1655 13.9809C15.2956 15.2828 14.0592 16.2975 12.6126 16.8967C11.166 17.4959 9.57427 17.6527 8.03859 17.3472C6.5029 17.0418 5.09229 16.2878 3.98512 15.1806C2.87796 14.0734 2.12397 12.6628 1.8185 11.1271C1.51304 9.59146 1.66981 7.99969 2.26901 6.5531C2.8682 5.10652 3.8829 3.87011 5.18479 3.00021C6.48668 2.13032 8.01728 1.66602 9.58305 1.66602C11.6827 1.66602 13.6963 2.50009 15.181 3.98475C16.6656 5.46942 17.4997 7.48305 17.4997 9.58268V9.58268Z" stroke="#757575" stroke-width="1.5" stroke-linecap="round" stroke-linejoin="round"/>
<path d="M18.333 18.3327L16.6664 16.666" stroke="#757575" stroke-width="1.5" stroke-linecap="round" stroke-linejoin="round"/>
</g>
<defs>
<clipPath id="clip0_4183_5015">
<rect width="20" height="20" fill="white"/>
</clipPath>
</defs>
</svg>
