<svg width="20" height="17" viewBox="0 0 20 17" fill="none" xmlns="http://www.w3.org/2000/svg">
<path d="M9.98 16.0939C9.786 16.0939 9.59367 16.0586 9.403 15.9879C9.21233 15.9179 9.04467 15.8102 8.9 15.6649L7.752 14.6299C5.972 13.0132 4.402 11.4409 3.042 9.9129C1.68067 8.38557 1 6.7979 1 5.1499C1 3.8779 1.432 2.8099 2.296 1.9459C3.16 1.0819 4.228 0.649902 5.5 0.649902C6.22933 0.649902 6.989 0.834236 7.779 1.2029C8.569 1.57157 9.30933 2.2669 10 3.2889C10.6913 2.2669 11.4317 1.57157 12.221 1.2029C13.0103 0.834236 13.77 0.649902 14.5 0.649902C15.772 0.649902 16.84 1.0819 17.704 1.9459C18.568 2.8099 19 3.8779 19 5.1499C19 6.8359 18.2917 8.45657 16.875 10.0119C15.4583 11.5672 13.9077 13.1079 12.223 14.6339L11.081 15.6649C10.9357 15.8102 10.7647 15.9179 10.568 15.9879C10.3713 16.0579 10.1757 16.0932 9.981 16.0939M9.511 4.3269C8.91233 3.36157 8.29 2.6739 7.644 2.2639C6.998 1.85457 6.28333 1.6499 5.5 1.6499C4.5 1.6499 3.66667 1.98324 3 2.6499C2.33333 3.31657 2 4.1499 2 5.1499C2 5.88857 2.209 6.6459 2.627 7.4219C3.045 8.19857 3.60633 8.9939 4.311 9.8079C5.015 10.6212 5.82467 11.4539 6.74 12.3059C7.654 13.1572 8.606 14.0336 9.596 14.9349C9.71133 15.0376 9.846 15.0889 10 15.0889C10.154 15.0889 10.2887 15.0376 10.404 14.9349C11.394 14.0336 12.3463 13.1569 13.261 12.3049C14.1757 11.4542 14.9853 10.6219 15.69 9.8079C16.394 8.99323 16.955 8.1979 17.373 7.4219C17.791 6.6459 18 5.88857 18 5.1499C18 4.1499 17.6667 3.31657 17 2.6499C16.3333 1.98324 15.5 1.6499 14.5 1.6499C13.7167 1.6499 13.002 1.8549 12.356 2.2649C11.7093 2.67424 11.087 3.36157 10.489 4.3269C10.4357 4.4169 10.3643 4.48424 10.275 4.5289C10.1857 4.57357 10.094 4.5959 10 4.5959C9.906 4.5959 9.81433 4.57357 9.725 4.5289C9.63567 4.48424 9.56467 4.4169 9.512 4.3269" fill="#425A8B"/>
<path d="M9.98 16.0939C9.786 16.0939 9.59367 16.0586 9.403 15.9879C9.21233 15.9179 9.04467 15.8102 8.9 15.6649L7.752 14.6299C5.972 13.0132 4.402 11.4409 3.042 9.9129C1.68067 8.38557 1 6.7979 1 5.1499C1 3.8779 1.432 2.8099 2.296 1.9459C3.16 1.0819 4.228 0.649902 5.5 0.649902C6.22933 0.649902 6.989 0.834236 7.779 1.2029C8.569 1.57157 9.30933 2.2669 10 3.2889C10.6913 2.2669 11.4317 1.57157 12.221 1.2029C13.0103 0.834236 13.77 0.649902 14.5 0.649902C15.772 0.649902 16.84 1.0819 17.704 1.9459C18.568 2.8099 19 3.8779 19 5.1499C19 6.8359 18.2917 8.45657 16.875 10.0119C15.4583 11.5672 13.9077 13.1079 12.223 14.6339L11.081 15.6649C10.9357 15.8102 10.7647 15.9179 10.568 15.9879C10.3713 16.0579 10.1757 16.0932 9.981 16.0939M9.511 4.3269C8.91233 3.36157 8.29 2.6739 7.644 2.2639C6.998 1.85457 6.28333 1.6499 5.5 1.6499C4.5 1.6499 3.66667 1.98324 3 2.6499C2.33333 3.31657 2 4.1499 2 5.1499C2 5.88857 2.209 6.6459 2.627 7.4219C3.045 8.19857 3.60633 8.9939 4.311 9.8079C5.015 10.6212 5.82467 11.4539 6.74 12.3059C7.654 13.1572 8.606 14.0336 9.596 14.9349C9.71133 15.0376 9.846 15.0889 10 15.0889C10.154 15.0889 10.2887 15.0376 10.404 14.9349C11.394 14.0336 12.3463 13.1569 13.261 12.3049C14.1757 11.4542 14.9853 10.6219 15.69 9.8079C16.394 8.99323 16.955 8.1979 17.373 7.4219C17.791 6.6459 18 5.88857 18 5.1499C18 4.1499 17.6667 3.31657 17 2.6499C16.3333 1.98324 15.5 1.6499 14.5 1.6499C13.7167 1.6499 13.002 1.8549 12.356 2.2649C11.7093 2.67424 11.087 3.36157 10.489 4.3269C10.4357 4.4169 10.3643 4.48424 10.275 4.5289C10.1857 4.57357 10.094 4.5959 10 4.5959C9.906 4.5959 9.81433 4.57357 9.725 4.5289C9.63567 4.48424 9.56467 4.4169 9.512 4.3269" stroke="#425A8B" stroke-width="0.3"/>
</svg>
